<?xml version="1.0" encoding="utf-8"?>
<!-- Generator: Adobe Illustrator 23.0.3, SVG Export Plug-In . SVG Version: 6.00 Build 0)  -->
<svg version="1.1" id="Capa_1" xmlns="http://www.w3.org/2000/svg" xmlns:xlink="http://www.w3.org/1999/xlink" x="0px" y="0px"
	 viewBox="0 0 1200 1200" enable-background="new 0 0 1200 1200" xml:space="preserve">
<path fill="#FF9F00" d="M802.343,433.427c0.534-0.182,0.732-0.756,0.424-1.579l-2.76-7.401c-0.46-1.234-0.218-3.126,0.537-4.204
	l4.532-6.469c0.756-1.079,0.297-1.915-1.018-1.859l-7.892,0.338c-1.316,0.056-3.04-0.758-3.832-1.81l-4.752-6.31
	c-0.792-1.052-1.729-0.874-2.082,0.394l-2.118,7.61c-0.353,1.269-1.661,2.657-2.906,3.086l-7.469,2.57
	c-1.245,0.428-1.366,1.374-0.269,2.102l6.583,4.365c0.94,0.624,1.744,1.94,1.97,3.133l-36.185,44.57l-1.796-2.385
	c-0.301-0.399-0.656-0.332-0.79,0.15l-0.803,2.886c-0.134,0.482-0.63,1.008-1.102,1.171l-2.833,0.975
	c-0.472,0.163-0.518,0.521-0.102,0.797l1.707,1.132l-38.644,21.941c-0.489-0.008-1.095-0.298-1.382-0.679l-1.803-2.393
	c-0.301-0.399-0.656-0.332-0.79,0.149l-0.803,2.887c-0.134,0.481-0.63,1.008-1.102,1.17l-2.833,0.975
	c-0.472,0.163-0.518,0.521-0.102,0.797l2.497,1.656c0.416,0.276,0.764,0.91,0.773,1.41l0.051,2.996
	c0.009,0.499,0.336,0.654,0.727,0.343l2.346-1.863c0.391-0.31,1.102-0.445,1.58-0.299l2.865,0.877
	c0.478,0.146,0.726-0.117,0.551-0.585l-1.047-2.807c-0.175-0.468-0.083-1.186,0.204-1.595l1.178-1.682l37.3-21.179l0.049,2.811
	c0.009,0.499,0.336,0.654,0.727,0.343l2.346-1.863c0.391-0.311,1.102-0.445,1.58-0.299l2.865,0.877
	c0.477,0.146,0.726-0.117,0.551-0.585l-1.047-2.807c-0.174-0.468-0.083-1.186,0.204-1.595l1.719-2.454
	c0.286-0.409,0.113-0.726-0.386-0.705l-1.601,0.068l33.457-41.21l0.077,4.486c0.023,1.317,0.885,1.724,1.916,0.905l6.089-4.835
	l27.042,148.698l-0.783,2.814c-0.188,0.676-0.885,1.417-1.549,1.645l-3.982,1.37c-0.664,0.229-0.728,0.733-0.143,1.121l2.514,1.667
	c-11.136,3.953-37.909,12.25-59.199,18.676c-0.055-0.009-0.099-0.026-0.165-0.023l-2.994,0.128
	c-0.499,0.021-1.153-0.287-1.454-0.687l-1.803-2.393c-0.301-0.399-0.656-0.332-0.79,0.149l-0.803,2.886
	c-0.134,0.481-0.63,1.008-1.102,1.17l-2.833,0.975c-0.472,0.163-0.518,0.521-0.102,0.798l2.497,1.656
	c0.399,0.265,0.727,0.857,0.762,1.346c-1.805,3.79-4.64,9.757-6.526,13.787l-1.12-1.488c-0.301-0.399-0.656-0.332-0.79,0.149
	l-0.803,2.887c-0.134,0.481-0.63,1.008-1.102,1.17l-2.833,0.975c-0.472,0.163-0.518,0.521-0.102,0.797l2.497,1.656
	c0.416,0.276,0.764,0.91,0.772,1.41l0.051,2.996c0.009,0.499,0.336,0.654,0.727,0.343l2.346-1.863
	c0.391-0.31,1.102-0.445,1.58-0.299l2.865,0.877c0.477,0.146,0.726-0.117,0.551-0.585l-1.047-2.807
	c-0.174-0.468-0.083-1.186,0.204-1.595l1.719-2.454c0.287-0.409,0.113-0.726-0.386-0.705l-2.987,0.128
	c1.491-3.189,3.79-8.042,5.957-12.599l1.562-1.24c0.391-0.311,1.102-0.445,1.579-0.299l2.865,0.877
	c0.478,0.146,0.726-0.117,0.551-0.585l-1.047-2.807c-0.167-0.449-0.085-1.121,0.175-1.537c18.343-5.518,50.291-15.265,62.674-19.876
	c0.076,0.221,0.13,0.442,0.133,0.649l0.072,4.21c0.012,0.702,0.472,0.919,1.022,0.482l3.297-2.618c0.55-0.437,1.549-0.626,2.22-0.42
	l4.027,1.232c0.671,0.205,1.02-0.165,0.774-0.823l-1.471-3.945c-0.245-0.658-0.116-1.666,0.286-2.241l2.416-3.449
	c0.403-0.575,0.159-1.021-0.543-0.991l-4.207,0.18c-0.128,0.005-0.267-0.02-0.405-0.043c6.047-14.015,21.067-51.317,29.901-73.356
	l5.405-4.291c1.031-0.819,2.905-1.174,4.164-0.788l7.553,2.311c1.259,0.385,1.913-0.309,1.453-1.543l-2.76-7.401
	c-0.46-1.234-0.218-3.126,0.537-4.204l4.532-6.47c0.756-1.078,0.298-1.915-1.018-1.858l-7.892,0.338
	c-1.316,0.056-3.041-0.758-3.833-1.81l-4.752-6.31c-0.792-1.052-1.729-0.875-2.082,0.394l-2.117,7.61
	c-0.084,0.303-0.226,0.612-0.406,0.914L802.343,433.427z M840.616,493.854l6.583,4.365c1.097,0.728,2.014,2.4,2.037,3.717
	l0.135,7.881c-11.047,27.548-23.974,59.502-29.336,72.078l-0.802-1.064L791.98,430.969c0.63-0.075,1.258-0.049,1.781,0.111
	l4.048,1.239l51.196,56.549c-0.216,0.128-0.434,0.24-0.651,0.315l-7.469,2.57C839.64,492.18,839.519,493.126,840.616,493.854z
	 M606.875,102.516l6.583,4.365c1.098,0.728,2.014,2.4,2.036,3.717l0.136,7.898c0.023,1.317,0.885,1.724,1.916,0.905l6.186-4.912
	c0.185-0.147,0.404-0.273,0.635-0.388c-0.001,6.431,0.071,14.345,0.141,20.549l-0.648,2.329c-0.134,0.481-0.63,1.008-1.102,1.17
	l-2.833,0.975c-0.472,0.163-0.518,0.521-0.102,0.797l2.497,1.656c0.416,0.276,0.764,0.91,0.773,1.41l0.051,2.996
	c0.009,0.499,0.336,0.654,0.727,0.343l2.346-1.863c0.391-0.311,1.102-0.445,1.58-0.299l2.865,0.877
	c0.477,0.146,0.726-0.117,0.551-0.585l-0.187-0.502l41.003,19.316l-1.008,0.347c-0.472,0.163-0.518,0.521-0.102,0.797l2.497,1.656
	c0.416,0.276,0.764,0.911,0.772,1.41l0.052,2.996c0.008,0.499,0.336,0.654,0.727,0.343l2.346-1.863
	c0.391-0.311,1.102-0.445,1.579-0.299l2.865,0.877c0.478,0.146,0.726-0.117,0.551-0.585l-0.599-1.606l24.257,9.145
	c-0.338,0.18-0.354,0.484,0.017,0.73l2.497,1.656c0.416,0.276,0.764,0.911,0.772,1.41l0.051,2.996
	c0.009,0.499,0.336,0.654,0.727,0.343l2.346-1.863c0.391-0.311,1.102-0.445,1.58-0.299l2.865,0.877
	c0.17,0.052,0.297,0.037,0.4-0.006l50.184,32.82l-6.643,2.286c-1.245,0.429-1.366,1.374-0.269,2.102l6.583,4.365
	c1.098,0.728,2.014,2.4,2.037,3.717l0.136,7.898c0.021,1.212,0.756,1.64,1.677,1.064l-1.288,9.574
	c-0.287-0.321-0.607-0.25-0.733,0.202l-0.803,2.887c-0.134,0.481-0.63,1.008-1.102,1.171l-2.833,0.975
	c-0.473,0.163-0.518,0.521-0.102,0.797l2.497,1.656c0.416,0.276,0.764,0.911,0.772,1.41l0.051,2.996
	c0.009,0.499,0.336,0.654,0.727,0.343l2.346-1.863c0.392-0.311,1.102-0.445,1.58-0.299l2.865,0.877
	c0.478,0.146,0.726-0.117,0.551-0.585l-1.047-2.807c-0.175-0.468-0.083-1.186,0.204-1.595l1.719-2.454
	c0.287-0.409,0.113-0.726-0.386-0.705l-2.993,0.128c-0.334,0.014-0.729-0.126-1.05-0.335l1.975-14.683l3.474-2.759
	c1.031-0.819,2.905-1.174,4.164-0.788l7.553,2.311c1.259,0.385,1.913-0.309,1.453-1.543l-2.76-7.401
	c-0.46-1.234-0.218-3.126,0.537-4.204l4.532-6.47c0.756-1.078,0.297-1.915-1.018-1.859l-7.24,0.31l18.867-23.757
	c0.17-0.215,0.268-0.476,0.282-0.75l1.291-26.345c0.533-0.207,1.183-0.269,1.667-0.121l4.026,1.232
	c0.671,0.205,1.02-0.165,0.775-0.822l-1.471-3.945c-0.156-0.419-0.146-0.974-0.025-1.475l11.662-1.152l0.379,0.251
	c0.585,0.388,1.073,1.28,1.085,1.982l0.073,4.21c0.012,0.702,0.472,0.919,1.022,0.483l3.298-2.618c0.55-0.436,1.549-0.626,2.22-0.42
	l4.027,1.232c0.671,0.205,1.02-0.165,0.774-0.822l-1.471-3.945c-0.245-0.658-0.116-1.666,0.286-2.241l2.416-3.449
	c0.403-0.575,0.159-1.021-0.543-0.991l-4.207,0.18c-0.701,0.03-1.621-0.404-2.043-0.965l-2.533-3.363
	c-0.422-0.561-0.922-0.466-1.11,0.21l-1.129,4.057c-0.188,0.676-0.885,1.416-1.549,1.645l-3.982,1.37
	c-0.544,0.187-0.661,0.558-0.373,0.9l-6.566,0.648l0.991-1.415c0.403-0.575,0.159-1.021-0.543-0.991l-4.207,0.18
	c-0.702,0.03-1.621-0.404-2.043-0.965l-2.533-3.363c-0.422-0.561-0.922-0.466-1.11,0.21l-1.129,4.057
	c-0.124,0.446-0.477,0.907-0.888,1.243l-37.152-16.789c-0.03-0.569,0.111-1.202,0.4-1.615l2.416-3.449
	c0.403-0.575,0.158-1.021-0.543-0.991l-4.207,0.18c-0.701,0.03-1.621-0.404-2.043-0.965l-2.533-3.363
	c-0.422-0.561-0.922-0.466-1.11,0.21l-1.129,4.057c-0.012,0.044-0.042,0.087-0.059,0.131L694.363,72.34l-0.411-1.102
	c-0.175-0.468-0.083-1.186,0.204-1.595l1.719-2.454c0.287-0.409,0.113-0.726-0.386-0.705l-2.994,0.128
	c-0.499,0.021-1.153-0.288-1.454-0.687l-1.803-2.393c-0.3-0.399-0.656-0.332-0.79,0.149l-0.803,2.887
	c-0.134,0.481-0.63,1.008-1.102,1.17l-0.899,0.309l-23.401-1.825l4.131-5.897c0.756-1.079,0.297-1.915-1.018-1.859l-7.892,0.338
	c-1.316,0.056-3.04-0.758-3.833-1.81l-4.752-6.31c-0.792-1.052-1.729-0.875-2.082,0.394l-2.118,7.61
	c-0.353,1.269-1.661,2.657-2.906,3.085l-7.469,2.57c-1.245,0.428-1.366,1.374-0.269,2.102l6.583,4.365
	c1.098,0.728,2.014,2.4,2.037,3.717l0.073,4.229c-4.558,5.783-9.14,11.641-12.554,16.11c-1.298,0.002-2.938-0.787-3.705-1.806
	l-4.752-6.31c-0.792-1.052-1.729-0.875-2.082,0.394l-2.118,7.61c-0.353,1.269-1.661,2.657-2.906,3.085l-7.469,2.57
	C605.898,100.842,605.778,101.788,606.875,102.516z M781.666,211.329c-0.634-0.323-1.205-0.754-1.572-1.241l-4.752-6.31
	c-0.792-1.052-1.729-0.875-2.082,0.394l-2.118,7.61c-0.183,0.657-0.624,1.343-1.178,1.915l-53.714-35.128
	c-0.038-0.422,0.066-0.908,0.283-1.218l1.719-2.454c0.286-0.409,0.113-0.726-0.386-0.705l-2.994,0.128
	c-0.499,0.021-1.153-0.288-1.454-0.687l-1.803-2.393c-0.3-0.399-0.656-0.332-0.79,0.149l-0.803,2.887
	c-0.074,0.265-0.261,0.537-0.49,0.762l-28.018-10.56l1.671-2.385c0.286-0.409,0.112-0.726-0.386-0.705l-2.994,0.128
	c-0.499,0.021-1.153-0.288-1.454-0.687l-1.803-2.393c-0.301-0.399-0.656-0.332-0.79,0.149l-0.803,2.887
	c-0.022,0.08-0.067,0.16-0.107,0.24l-44.711-21.068c0.048-0.22,0.12-0.431,0.232-0.59l1.719-2.454
	c0.287-0.409,0.113-0.727-0.386-0.705l-2.993,0.128c-0.499,0.021-1.153-0.288-1.454-0.687l-0.112-0.149
	c-0.084-7.278-0.155-15.982-0.157-22.629c0.322,0.016,0.633,0.059,0.91,0.144l7.553,2.311c1.259,0.385,1.913-0.309,1.453-1.543
	l-2.76-7.401c-0.46-1.234-0.218-3.126,0.537-4.204l4.532-6.469c0.756-1.079,0.297-1.915-1.018-1.859l-4.62,0.198
	c2.66-3.444,5.9-7.591,9.263-11.871c0.19,0.96,0.965,1.19,1.871,0.47l6.186-4.912c1.031-0.819,2.905-1.174,4.164-0.788l7.553,2.311
	c1.259,0.385,1.913-0.309,1.453-1.543L661.306,71c-0.238-0.639-0.285-1.453-0.173-2.239l24.189,1.887l0.784,0.52
	c0.416,0.276,0.764,0.911,0.773,1.41l0.051,2.996c0.009,0.499,0.336,0.654,0.727,0.343l2.346-1.863
	c0.391-0.311,1.102-0.445,1.579-0.299l0.695,0.213l60.012,57.175l-3.458,1.19c-0.664,0.228-0.728,0.733-0.143,1.121l3.509,2.327
	c0.585,0.388,1.073,1.28,1.085,1.982l0.073,4.21c0.012,0.702,0.472,0.919,1.022,0.483l3.298-2.618c0.55-0.436,1.549-0.626,2.22-0.42
	l4.027,1.232c0.671,0.205,1.02-0.165,0.774-0.822l-0.442-1.185l32.621,14.742l-1.254,0.432c-0.664,0.228-0.728,0.733-0.143,1.121
	l3.509,2.327c0.585,0.388,1.074,1.28,1.086,1.982l0.072,4.21c0.012,0.702,0.472,0.919,1.022,0.483l1.132-0.899l-1.166,23.778
	L781.666,211.329z M1135.959,895.504l-7.892,0.338c-1.316,0.057-3.04-0.758-3.833-1.81l-4.752-6.31
	c-0.793-1.052-1.73-0.875-2.082,0.394l-2.118,7.61c-0.206,0.739-0.739,1.513-1.391,2.119l-5.791-3.089
	c0.035-0.296,0.128-0.586,0.275-0.795l1.719-2.454c0.287-0.409,0.112-0.727-0.386-0.705l-2.993,0.128
	c-0.499,0.021-1.153-0.288-1.454-0.687l-1.802-2.393c-0.301-0.399-0.656-0.331-0.79,0.149l-0.803,2.887
	c-0.134,0.481-0.63,1.008-1.102,1.17l-2.833,0.975c-0.473,0.163-0.519,0.521-0.102,0.797l2.497,1.656
	c0.003,0.002,0.006,0.006,0.01,0.009l-7.505,6.932l-0.231,0.01c-0.702,0.03-1.621-0.404-2.043-0.965l-2.534-3.363
	c-0.422-0.561-0.922-0.466-1.11,0.21l-1.129,4.057c-0.188,0.676-0.885,1.416-1.549,1.645l-3.982,1.37
	c-0.664,0.228-0.729,0.733-0.144,1.121l3.51,2.327c0.585,0.388,1.074,1.28,1.086,1.981l0.072,4.21
	c0.012,0.687,0.454,0.901,0.989,0.5l-0.974,4.747l-1.29-1.713c-0.422-0.561-0.922-0.466-1.11,0.21l-1.129,4.057
	c-0.188,0.676-0.885,1.417-1.549,1.645l-3.982,1.37c-0.664,0.228-0.728,0.733-0.143,1.121l3.51,2.327
	c0.585,0.388,1.074,1.28,1.086,1.982l0.008,0.472l-14.596,12.428c-0.501-0.164-0.992-0.461-1.268-0.828l-2.533-3.363
	c-0.422-0.561-0.922-0.466-1.11,0.21l-1.129,4.057c-0.188,0.676-0.885,1.416-1.549,1.645l-3.982,1.37
	c-0.664,0.229-0.728,0.733-0.143,1.121l3.51,2.327c0.487,0.323,0.89,0.993,1.024,1.615l-24.337,37.313l-1.54-2.045
	c-0.3-0.399-0.656-0.331-0.79,0.149l-0.803,2.887c-0.134,0.481-0.63,1.008-1.102,1.17l-2.833,0.975
	c-0.472,0.163-0.518,0.521-0.102,0.797l2.49,1.651l-8.676,7.921c-0.16-0.104-0.307-0.22-0.407-0.353l-1.802-2.393
	c-0.301-0.399-0.656-0.331-0.79,0.149l-0.803,2.887c-0.133,0.481-0.63,1.008-1.102,1.17l-2.833,0.975
	c-0.473,0.163-0.519,0.521-0.102,0.797l2.497,1.656c0.349,0.232,0.636,0.711,0.729,1.156l-5.019,9.762l-1.261-1.674
	c-0.3-0.399-0.656-0.332-0.789,0.149l-0.803,2.886c-0.134,0.481-0.63,1.008-1.102,1.17l-2.833,0.975
	c-0.472,0.162-0.518,0.521-0.102,0.797l2.497,1.656c0.416,0.276,0.764,0.91,0.773,1.41l0.005,0.276l-8.572,19.988l-1.837-2.438
	c-0.422-0.561-0.922-0.466-1.11,0.21l-1.129,4.057c-0.188,0.676-0.885,1.416-1.549,1.645l-3.982,1.37
	c-0.664,0.228-0.728,0.733-0.143,1.12l3.51,2.327c0.585,0.388,1.074,1.28,1.086,1.982l0.072,4.21
	c0.012,0.702,0.472,0.919,1.021,0.483l2.237-1.776l1.421,13.728l-0.281,1.01c-0.133,0.481-0.63,1.008-1.102,1.17l-2.833,0.975
	c-0.473,0.162-0.519,0.521-0.102,0.797l2.497,1.656c0.327,0.217,0.604,0.653,0.716,1.073l-2.416,4.541
	c-0.031-0.038-0.07-0.073-0.098-0.111l-4.752-6.31c-0.793-1.052-1.73-0.875-2.083,0.394l-0.588,2.112l-20.087-52.832l6.878,2.104
	c1.259,0.385,1.913-0.309,1.453-1.543l-2.76-7.401c-0.461-1.234-0.218-3.126,0.537-4.204l4.532-6.469
	c0.756-1.078,0.298-1.915-1.018-1.859l-7.892,0.338c-1.316,0.057-3.041-0.758-3.833-1.81l-4.752-6.31
	c-0.503-0.669-1.065-0.836-1.498-0.547l-5.539-22.742l2.567,0.785c0.478,0.146,0.726-0.117,0.551-0.585l-1.047-2.807
	c-0.175-0.468-0.083-1.186,0.204-1.595l1.719-2.454c0.287-0.409,0.113-0.726-0.386-0.705l-2.993,0.128
	c-0.499,0.021-1.153-0.288-1.454-0.687l-1.802-2.393c-0.3-0.399-0.656-0.332-0.789,0.149l-0.803,2.887
	c-0.056,0.199-0.182,0.401-0.334,0.587l-8.46-5.609c-0.048-0.43,0.052-0.935,0.275-1.254l1.719-2.454
	c0.287-0.409,0.113-0.726-0.386-0.705l-2.994,0.128c-0.499,0.021-1.153-0.288-1.454-0.687l-1.802-2.393
	c-0.3-0.399-0.656-0.332-0.79,0.149l-0.803,2.886c-0.134,0.481-0.63,1.008-1.102,1.171l-0.075,0.026l-11.048-2.004l1.418-2.025
	c0.287-0.409,0.113-0.726-0.386-0.705l-2.993,0.128c-0.499,0.021-1.153-0.288-1.454-0.687l-1.418-1.883l-1.682-6.8l2.099,0.643
	c0.671,0.205,1.02-0.165,0.775-0.823l-1.471-3.945c-0.245-0.658-0.116-1.666,0.287-2.241l2.415-3.449
	c0.403-0.575,0.158-1.021-0.543-0.991l-4.206,0.18c-0.701,0.03-1.621-0.404-2.043-0.965l-2.534-3.364
	c-0.422-0.56-0.922-0.466-1.11,0.21l-1.129,4.057c-0.188,0.676-0.885,1.417-1.549,1.645l-3.982,1.37
	c-0.664,0.228-0.729,0.733-0.144,1.121l3.51,2.327c0.585,0.388,1.074,1.28,1.086,1.982l0.072,4.21
	c0.012,0.702,0.472,0.919,1.022,0.483l3.298-2.618c0.327-0.26,0.812-0.417,1.294-0.471l2.498,10.1
	c-0.179,0.441-0.614,0.889-1.042,1.037l-2.833,0.975c-0.473,0.163-0.518,0.521-0.102,0.797l2.497,1.656
	c0.416,0.276,0.764,0.911,0.773,1.41l0.051,2.996c0.009,0.499,0.336,0.654,0.727,0.343l2.346-1.863
	c0.391-0.311,1.102-0.445,1.579-0.299l2.865,0.877c0.478,0.146,0.726-0.117,0.551-0.585l-0.83-2.225l9.292,1.685l1.68,1.115
	c0.416,0.276,0.764,0.911,0.773,1.41l0.051,2.996c0.009,0.499,0.336,0.654,0.727,0.343l2.347-1.863
	c0.391-0.31,1.102-0.445,1.58-0.299l2.865,0.877c0.143,0.044,0.257,0.041,0.353,0.017l4.739,3.142l-0.802,0.276
	c-0.473,0.163-0.518,0.521-0.102,0.797l2.497,1.656c0.416,0.276,0.764,0.911,0.773,1.41l0.051,2.996
	c0.009,0.499,0.336,0.654,0.727,0.343l1.706-1.355l6.471,26.569l-1.115,4.008c-0.353,1.269-1.661,2.657-2.906,3.086l-7.469,2.57
	c-1.245,0.429-1.366,1.374-0.268,2.102l6.583,4.365c1.097,0.728,2.014,2.401,2.037,3.718l0.135,7.898
	c0.023,1.317,0.885,1.724,1.917,0.905l6.186-4.912c0.504-0.4,1.21-0.687,1.945-0.833l21.799,57.335l-0.347,1.247
	c-0.353,1.269-1.661,2.657-2.906,3.085l-7.469,2.57c-1.245,0.428-1.367,1.374-0.269,2.102l6.583,4.365
	c1.097,0.728,2.014,2.401,2.037,3.717l0.136,7.898c0.022,1.317,0.885,1.724,1.916,0.905l6.186-4.912
	c1.031-0.819,2.905-1.174,4.164-0.788l7.553,2.311c1.26,0.385,1.914-0.309,1.453-1.543l-2.76-7.401
	c-0.46-1.234-0.218-3.126,0.537-4.204l4.533-6.469c0.755-1.079,0.297-1.915-1.019-1.859l-7.892,0.338
	c-0.48,0.021-1.014-0.077-1.538-0.258l1.353-2.544l2.048-1.626c0.391-0.311,1.102-0.445,1.579-0.299l2.865,0.877
	c0.478,0.146,0.726-0.117,0.551-0.585l-1.047-2.808c-0.174-0.468-0.083-1.185,0.204-1.595l1.719-2.454
	c0.287-0.409,0.112-0.726-0.386-0.705l-2.993,0.128c-0.499,0.021-1.154-0.288-1.454-0.687l-0.517-0.686l-1.526-14.735
	c0.28-0.018,0.554-0.009,0.788,0.062l4.026,1.232c0.671,0.206,1.019-0.165,0.774-0.822l-1.471-3.946
	c-0.245-0.658-0.116-1.666,0.286-2.241l2.416-3.449c0.403-0.575,0.158-1.021-0.543-0.991l-4.207,0.18
	c-0.208,0.009-0.434-0.033-0.662-0.097l8.416-19.628l1.199-0.952c0.391-0.311,1.102-0.445,1.579-0.299l2.865,0.877
	c0.478,0.146,0.726-0.117,0.551-0.585l-1.047-2.808c-0.174-0.468-0.083-1.185,0.204-1.595l1.719-2.454
	c0.286-0.409,0.112-0.726-0.386-0.705l-2.768,0.118l4.079-7.93l1.887-1.498c0.391-0.31,1.102-0.445,1.579-0.299l2.865,0.877
	c0.478,0.146,0.726-0.118,0.551-0.585l-1.047-2.807c-0.174-0.468-0.083-1.186,0.204-1.595l1.719-2.454
	c0.287-0.409,0.112-0.726-0.386-0.705l-0.405,0.017l5.844-5.335l0.028,1.602c0.008,0.499,0.335,0.654,0.727,0.343l2.346-1.863
	c0.391-0.31,1.102-0.445,1.579-0.299l2.865,0.877c0.478,0.146,0.726-0.117,0.551-0.585l-1.047-2.807
	c-0.175-0.468-0.083-1.186,0.204-1.595l1.719-2.454c0.287-0.409,0.113-0.726-0.386-0.705l-2.24,0.096l22.002-33.733
	c0.015,0.696,0.472,0.912,1.02,0.477l3.298-2.618c0.549-0.437,1.548-0.626,2.22-0.42l4.026,1.232
	c0.671,0.205,1.019-0.164,0.774-0.822l-1.471-3.945c-0.245-0.658-0.116-1.666,0.286-2.241l2.416-3.449
	c0.403-0.575,0.158-1.021-0.543-0.991l-0.943,0.041l10.617-9.04l0.006,0.352c0.012,0.702,0.472,0.919,1.021,0.483l3.298-2.619
	c0.549-0.437,1.548-0.626,2.22-0.42l2.234,0.684l10.135,7.261l-1.079,0.371c-0.664,0.228-0.728,0.733-0.143,1.121l3.509,2.327
	c0.585,0.388,1.074,1.28,1.086,1.982l0.072,4.21c0.012,0.702,0.472,0.919,1.022,0.483l3.297-2.618c0.55-0.437,1.549-0.626,2.22-0.42
	l4.026,1.232c0.671,0.205,1.02-0.165,0.775-0.822l-1.472-3.945c-0.245-0.658-0.116-1.666,0.287-2.241l2.416-3.449
	c0.402-0.575,0.158-1.021-0.543-0.991l-1.314,0.056l4.542-5.551l0.008,0.477c0.008,0.499,0.335,0.654,0.727,0.343l2.347-1.863
	c0.391-0.31,1.102-0.445,1.579-0.299l2.865,0.877c0.478,0.146,0.726-0.117,0.551-0.585l-1.047-2.807
	c-0.174-0.468-0.083-1.186,0.204-1.595l1.719-2.454c0.287-0.409,0.112-0.726-0.386-0.705l-2.993,0.128
	c-0.401,0.017-0.892-0.182-1.229-0.467l0.717-8.917c0.913-0.272,1.943-0.321,2.732-0.08l7.554,2.311
	c1.259,0.385,1.913-0.309,1.453-1.543l-2.76-7.401c-0.46-1.234-0.219-3.126,0.537-4.204l4.533-6.469
	C1137.734,896.284,1137.275,895.448,1135.959,895.504z M1119.817,920.814c-0.179-0.019-0.341,0.101-0.421,0.388l-0.803,2.887
	c-0.134,0.481-0.63,1.008-1.102,1.17l-2.833,0.975c-0.472,0.163-0.518,0.521-0.102,0.797l2.497,1.656
	c0.131,0.087,0.249,0.216,0.358,0.359l-7.519,9.187c-0.579-0.133-1.183-0.483-1.502-0.907l-2.533-3.364
	c-0.423-0.56-0.922-0.466-1.11,0.21l-1.129,4.057c-0.177,0.638-0.809,1.318-1.436,1.586l-11.146-7.986l-0.909-2.438
	c-0.245-0.658-0.116-1.666,0.286-2.241l2.416-3.449c0.403-0.575,0.158-1.021-0.543-0.991l-4.206,0.18
	c-0.343,0.015-0.737-0.084-1.1-0.252l1.975-9.634l0.143-0.113c0.549-0.437,1.549-0.626,2.22-0.42l4.026,1.232
	c0.671,0.205,1.02-0.165,0.775-0.822l-1.471-3.945c-0.245-0.658-0.116-1.666,0.287-2.241l2.416-3.449
	c0.39-0.557,0.163-0.984-0.488-0.983l4.261-3.936l0.027,1.563c0.009,0.499,0.336,0.654,0.727,0.343l2.346-1.863
	c0.391-0.31,1.102-0.445,1.579-0.299l2.865,0.877c0.478,0.146,0.726-0.117,0.551-0.585l-0.02-0.056l1.821,0.971l-6.112,2.103
	c-1.245,0.429-1.366,1.374-0.269,2.102l6.583,4.365c1.098,0.728,2.014,2.401,2.037,3.717l0.136,7.898
	c0.022,1.317,0.885,1.724,1.916,0.905l4.851-3.852L1119.817,920.814z M860.839,987.496l-1.719,2.454
	c-0.286,0.409-0.378,1.127-0.204,1.595l1.047,2.808c0.175,0.468-0.073,0.731-0.551,0.585l-2.865-0.877
	c-0.478-0.146-1.189-0.012-1.58,0.299l-2.346,1.863c-0.391,0.31-0.718,0.156-0.727-0.344l-0.051-2.995
	c-0.009-0.499-0.356-1.134-0.773-1.41l-2.497-1.656c-0.416-0.276-0.37-0.635,0.102-0.797l0.505-0.174l-60.596-28.687l0.521,1.396
	c0.245,0.658-0.103,1.028-0.775,0.822l-4.026-1.232c-0.671-0.205-1.67-0.016-2.22,0.42l-3.297,2.618
	c-0.55,0.437-1.01,0.219-1.022-0.482l-0.072-4.21c-0.012-0.702-0.501-1.594-1.086-1.982l-3.509-2.327
	c-0.585-0.388-0.521-0.892,0.143-1.121l3.508-1.207l-29.588-26.171c-0.164,0.52-0.72,0.735-1.544,0.483l-7.553-2.311
	c-1.259-0.385-3.133-0.031-4.165,0.788l-6.064,4.815l-12.338,28.222l1.353-0.058c0.499-0.021,0.673,0.296,0.386,0.705l-1.719,2.454
	c-0.286,0.409-0.378,1.127-0.204,1.595l1.047,2.808c0.175,0.468-0.073,0.731-0.551,0.585l-0.343-0.105l9.269,32.016l1.472,1.954
	c0.301,0.399,0.955,0.708,1.454,0.687l2.993-0.128c0.499-0.021,0.673,0.296,0.386,0.705l-1.719,2.454
	c-0.286,0.409-0.378,1.127-0.204,1.595l1.047,2.807c0.175,0.468-0.073,0.731-0.551,0.585l-2.865-0.877
	c-0.477-0.146-1.188-0.012-1.579,0.299l-2.346,1.863c-0.391,0.311-0.718,0.156-0.727-0.343l-0.052-2.996
	c-0.008-0.499-0.356-1.134-0.772-1.41l-2.497-1.656c-0.416-0.276-0.37-0.635,0.102-0.797l2.833-0.975
	c0.451-0.155,0.914-0.642,1.072-1.104l-10.279-35.506c-0.408,0.002-0.856,0.129-1.138,0.354l-2.347,1.863
	c-0.391,0.311-0.718,0.156-0.727-0.343l-0.052-2.996c-0.008-0.499-0.356-1.134-0.772-1.41l-2.497-1.656
	c-0.416-0.276-0.37-0.635,0.102-0.797l2.833-0.975c0.472-0.163,0.969-0.689,1.102-1.17l0.803-2.887
	c0.134-0.481,0.489-0.549,0.79-0.149l1.803,2.393c0.092,0.122,0.222,0.23,0.365,0.328l13.011-29.76l-0.118-6.879
	c-0.023-1.317-0.939-2.989-2.036-3.717l-0.027-0.018l-13.023,1.875c-0.042,0.299-0.026,0.607,0.064,0.85l1.047,2.807
	c0.174,0.468-0.074,0.731-0.551,0.585l-2.865-0.877c-0.478-0.146-1.189-0.011-1.58,0.299l-2.346,1.863
	c-0.391,0.31-0.718,0.156-0.727-0.343l-0.051-2.996c-0.009-0.499-0.356-1.134-0.773-1.41l-2.497-1.656
	c-0.416-0.276-0.37-0.635,0.102-0.797l2.452-0.844l-4.062-4.296l-0.202-0.062c-0.478-0.146-1.189-0.011-1.58,0.299l-2.346,1.863
	c-0.392,0.31-0.719,0.156-0.727-0.343l-0.051-2.996c-0.008-0.481-0.333-1.08-0.729-1.371l-9.976,0.628
	c0.003,0.185,0.022,0.366,0.079,0.518l1.047,2.807c0.175,0.468-0.073,0.731-0.551,0.585l-2.865-0.877
	c-0.477-0.146-1.188-0.011-1.58,0.299l-2.346,1.863c-0.097,0.077-0.191,0.126-0.277,0.147l-20.68,34.662l4.086-0.175
	c0.701-0.03,0.946,0.416,0.543,0.991l-2.416,3.449c-0.403,0.575-0.532,1.584-0.286,2.241l1.471,3.945
	c0.245,0.658-0.103,1.028-0.774,0.822l-4.027-1.232c-0.302-0.093-0.672-0.095-1.036-0.041l1.933,32l0.358,0.475
	c0.3,0.399,0.955,0.708,1.454,0.687l2.994-0.128c0.499-0.021,0.672,0.296,0.386,0.705l-1.719,2.454
	c-0.287,0.409-0.378,1.127-0.204,1.595l1.047,2.807c0.174,0.468-0.073,0.731-0.551,0.585l-2.865-0.877
	c-0.478-0.146-1.189-0.012-1.579,0.299l-0.489,0.388l-4.879,12.937c0.301,0.112,0.609,0.187,0.885,0.176l4.207-0.18
	c0.701-0.03,0.945,0.416,0.543,0.991l-2.416,3.449c-0.403,0.575-0.532,1.583-0.286,2.241l1.471,3.945
	c0.245,0.658-0.104,1.028-0.775,0.822l-4.026-1.232c-0.671-0.205-1.67-0.016-2.22,0.42l-3.297,2.618
	c-0.55,0.437-1.009,0.219-1.022-0.483l-0.035-2.027l-15.689,17.4l1.23-0.053c0.499-0.021,0.673,0.296,0.386,0.705l-1.719,2.454
	c-0.286,0.409-0.378,1.127-0.204,1.595l1.047,2.807c0.175,0.468-0.073,0.731-0.551,0.585l-2.865-0.877
	c-0.477-0.146-1.188-0.011-1.579,0.299l-2.347,1.863c-0.391,0.311-0.718,0.156-0.727-0.343l-0.051-2.996
	c-0.009-0.499-0.356-1.134-0.773-1.41l-2.497-1.656c-0.416-0.276-0.37-0.635,0.102-0.797l2.833-0.975
	c0.472-0.163,0.968-0.689,1.102-1.17l0.803-2.887c0.134-0.481,0.49-0.548,0.79-0.149l1.802,2.393
	c0.034,0.046,0.087,0.085,0.13,0.128l18.328-20.327c-0.188-0.307-0.418-0.583-0.676-0.754l-3.509-2.327
	c-0.585-0.388-0.521-0.892,0.143-1.121l3.982-1.37c0.664-0.229,1.361-0.969,1.549-1.645l1.129-4.057
	c0.188-0.676,0.688-0.771,1.11-0.21l1.64,2.178l4.317-11.446l-0.024-1.38c-0.009-0.499-0.356-1.134-0.772-1.41l-2.497-1.656
	c-0.416-0.276-0.37-0.635,0.102-0.797l2.833-0.975c0.473-0.163,0.969-0.689,1.102-1.17l0.399-1.432l-1.822-30.158l-1.953,1.551
	c-0.55,0.437-1.009,0.219-1.022-0.482l-0.072-4.21c-0.012-0.702-0.5-1.594-1.085-1.982l-3.509-2.327
	c-0.585-0.388-0.521-0.892,0.143-1.121l3.982-1.37c0.664-0.228,1.361-0.968,1.549-1.645l1.129-4.057
	c0.188-0.676,0.688-0.771,1.11-0.21l2.361,3.134l22.381-37.514c-0.139-0.346-0.369-0.677-0.639-0.857l-2.497-1.656
	c-0.416-0.276-0.37-0.635,0.102-0.797l2.833-0.975c0.472-0.163,0.968-0.689,1.102-1.171l0.803-2.886
	c0.134-0.482,0.489-0.549,0.79-0.15l1.802,2.393c0.301,0.399,0.955,0.708,1.454,0.687l2.994-0.128
	c0.499-0.021,0.673,0.296,0.386,0.705l-0.574,0.82l6.061-0.381c0.02-0.008,0.028-0.02,0.049-0.028l2.833-0.975
	c0.472-0.163,0.968-0.689,1.102-1.171l0.803-2.886c0.134-0.482,0.49-0.549,0.79-0.15l1.803,2.393c0.3,0.399,0.955,0.708,1.454,0.687
	l2.994-0.128c0.499-0.021,0.672,0.296,0.386,0.705l-1.719,2.454c-0.287,0.409-0.378,1.127-0.204,1.595l0.654,1.755l2.925,3.093
	l0.602-2.163c0.134-0.481,0.489-0.548,0.79-0.149l1.803,2.393c0.3,0.399,0.954,0.708,1.454,0.687l2.993-0.128
	c0.499-0.021,0.673,0.296,0.386,0.705l-0.21,0.3l7.971-1.148l-3.282-2.176c-1.098-0.728-0.977-1.674,0.269-2.102l7.469-2.57
	c1.245-0.429,2.553-1.817,2.906-3.086l2.117-7.61c0.353-1.269,1.29-1.446,2.082-0.394l4.752,6.31
	c0.792,1.052,2.517,1.867,3.832,1.81l7.892-0.338c1.316-0.056,1.774,0.78,1.018,1.859l-4.532,6.469
	c-0.756,1.079-0.997,2.971-0.537,4.204l1.362,3.652l33.066,29.246c0.008-0.025,0.027-0.05,0.033-0.075l1.129-4.057
	c0.188-0.676,0.688-0.771,1.11-0.21l2.533,3.363c0.422,0.561,1.342,0.995,2.043,0.965l4.207-0.18
	c0.702-0.03,0.946,0.416,0.543,0.991l-2.416,3.449c-0.252,0.36-0.381,0.888-0.394,1.395L852.3,987.43
	c0.14-0.177,0.257-0.367,0.31-0.555l0.803-2.886c0.134-0.481,0.489-0.548,0.79-0.149l1.802,2.393
	c0.301,0.399,0.955,0.708,1.454,0.687l2.994-0.128C860.952,986.77,861.126,987.087,860.839,987.496z M275.407,887.03l-2.993,0.128
	c-0.499,0.021-1.153-0.288-1.454-0.687l-1.803-2.393c-0.301-0.399-0.656-0.332-0.79,0.149l-0.803,2.886
	c-0.05,0.181-0.163,0.364-0.295,0.536l-24.345-5.477l2.181-3.114c0.403-0.575,0.158-1.021-0.543-0.991l-4.207,0.18
	c-0.58,0.025-1.293-0.275-1.767-0.694l-10.931-38.495l3.701,1.132c0.671,0.205,1.02-0.164,0.774-0.822l-1.471-3.945
	c-0.245-0.657-0.116-1.666,0.286-2.241l2.416-3.449c0.403-0.575,0.159-1.021-0.543-0.991l-3.039,0.13l27.152-34.077l0.006,0.354
	c0.009,0.499,0.336,0.654,0.727,0.343l2.346-1.863c0.391-0.311,1.102-0.445,1.579-0.299l2.865,0.877
	c0.478,0.146,0.726-0.117,0.551-0.585l-1.047-2.807c-0.174-0.468-0.083-1.186,0.204-1.595l1.719-2.454
	c0.286-0.409,0.113-0.727-0.386-0.705l-2.993,0.128c-0.499,0.021-1.153-0.287-1.454-0.687l-1.803-2.393
	c-0.301-0.399-0.656-0.332-0.79,0.149l-0.803,2.887c-0.134,0.481-0.63,1.008-1.102,1.17l-2.833,0.975
	c-0.472,0.163-0.518,0.521-0.102,0.798l2.497,1.656c0.142,0.094,0.27,0.239,0.385,0.397l-29.596,37.145
	c-0.125-0.103-0.246-0.21-0.334-0.328l-2.533-3.364c-0.422-0.561-0.922-0.466-1.11,0.21l-1.129,4.057
	c-0.188,0.676-0.885,1.417-1.549,1.645l-3.982,1.37c-0.664,0.229-0.728,0.733-0.143,1.121l1.776,1.177l-32.633,11.289l-2.356,0.101
	c-0.499,0.021-1.153-0.288-1.454-0.687l-1.803-2.393c-0.3-0.399-0.656-0.332-0.79,0.15l-0.803,2.886
	c-0.002,0.008-0.008,0.017-0.011,0.025l-10.318-7.499l-1.262-3.385c-0.46-1.234-0.218-3.126,0.537-4.204l4.532-6.469
	c0.756-1.079,0.298-1.915-1.018-1.859l-7.892,0.338c-1.316,0.057-3.04-0.758-3.832-1.81l-4.752-6.31
	c-0.792-1.052-1.729-0.875-2.082,0.394l-1.403,5.043l-13.555-23.807l0.548,0.168c0.478,0.146,0.726-0.118,0.551-0.585l-1.047-2.807
	c-0.159-0.426-0.088-1.049,0.14-1.467l14.998-4.286c0.111,0.229,0.188,0.472,0.192,0.69l0.051,2.996
	c0.009,0.499,0.336,0.654,0.727,0.343l2.347-1.863c0.391-0.31,1.102-0.445,1.58-0.299l2.865,0.877
	c0.477,0.146,0.726-0.117,0.551-0.585l-1.047-2.807c-0.175-0.468-0.083-1.186,0.204-1.595l1.719-2.454
	c0.286-0.409,0.113-0.727-0.386-0.705l-2.993,0.128c-0.499,0.021-1.153-0.288-1.454-0.687l-1.803-2.393
	c-0.301-0.399-0.656-0.331-0.79,0.149l-0.803,2.887c-0.134,0.481-0.63,1.008-1.102,1.17l-2.833,0.975
	c-0.472,0.163-0.518,0.521-0.102,0.797l0.564,0.374l-10.746,3.071c-0.087-0.046-0.195-0.076-0.342-0.069l-2.993,0.128
	c-0.499,0.021-1.153-0.288-1.454-0.687l-1.803-2.393c-0.301-0.399-0.656-0.331-0.79,0.149l-0.803,2.887
	c-0.007,0.025-0.025,0.051-0.034,0.076l-11.851-8.265c-0.017-0.553,0.119-1.156,0.398-1.554l2.416-3.449
	c0.403-0.575,0.159-1.021-0.543-0.991l-4.207,0.18c-0.701,0.03-1.621-0.404-2.043-0.965l-2.533-3.364
	c-0.422-0.561-0.922-0.466-1.11,0.21l-0.587,2.109l-15.121-17.384l-0.559-1.498c-0.175-0.468-0.083-1.186,0.204-1.595l1.719-2.454
	c0.287-0.409,0.113-0.727-0.386-0.705l-2.993,0.128c-0.499,0.021-1.153-0.288-1.454-0.687l-1.803-2.393
	c-0.3-0.399-0.656-0.331-0.79,0.149l-0.803,2.887c-0.134,0.481-0.63,1.008-1.102,1.17l-2.833,0.975
	c-0.472,0.163-0.518,0.521-0.102,0.797l2.497,1.656c0.416,0.276,0.764,0.91,0.772,1.41l0.052,2.996
	c0.008,0.499,0.336,0.654,0.727,0.343l2.347-1.863c0.391-0.31,1.102-0.445,1.579-0.299l0.471,0.144l16.546,19.022
	c-0.3,0.358-0.679,0.662-1.059,0.792l-3.982,1.37c-0.664,0.228-0.728,0.733-0.143,1.121l3.51,2.327
	c0.585,0.388,1.073,1.28,1.085,1.982l0.072,4.21c0.012,0.702,0.472,0.919,1.022,0.482l3.298-2.619c0.55-0.436,1.549-0.626,2.22-0.42
	l4.027,1.232c0.671,0.205,1.02-0.165,0.774-0.823l-0.171-0.458l8.074,5.631l-1.537,0.529c-0.473,0.163-0.518,0.521-0.102,0.797
	l2.497,1.656c0.416,0.276,0.764,0.91,0.772,1.41l0.052,2.996c0.009,0.499,0.336,0.654,0.727,0.343l2.347-1.863
	c0.138-0.109,0.32-0.187,0.513-0.248l15.864,27.863c-0.563,0.994-1.57,1.919-2.545,2.255l-7.469,2.57
	c-1.245,0.429-1.366,1.374-0.269,2.103l6.583,4.365c0.646,0.428,1.224,1.186,1.599,2.004l-15.087,15.077
	c-0.103-0.08-0.195-0.168-0.266-0.261l-1.803-2.393c-0.3-0.399-0.656-0.332-0.79,0.149l-0.803,2.887
	c-0.084,0.3-0.314,0.608-0.586,0.845l-16.765-5.66l1.534-2.19c0.287-0.409,0.113-0.726-0.386-0.705l-2.993,0.128
	c-0.499,0.021-1.153-0.288-1.454-0.687l-1.803-2.393c-0.3-0.399-0.656-0.331-0.79,0.149l-0.803,2.887
	c-0.134,0.481-0.63,1.008-1.102,1.17l-2.833,0.975c-0.473,0.163-0.518,0.521-0.102,0.797l2.497,1.656
	c0.037,0.025,0.069,0.065,0.105,0.095c-11.256,7.162-25.891,16.267-31.587,19.306c-0.306-0.125-0.592-0.314-0.763-0.54l-1.803-2.393
	c-0.3-0.399-0.656-0.332-0.79,0.149l-0.803,2.887c-0.134,0.481-0.63,1.008-1.102,1.17l-2.833,0.975
	c-0.472,0.163-0.518,0.521-0.102,0.797l2.497,1.656c0.416,0.276,0.764,0.91,0.772,1.41l0.052,2.996
	c0.009,0.499,0.336,0.654,0.727,0.343l1.672-1.328c1.531,6.357,5.199,19.092,13.47,44.948c-0.221,0.333-0.56,0.631-0.893,0.746
	l-2.833,0.975c-0.472,0.163-0.518,0.521-0.102,0.797l2.497,1.656c0.416,0.276,0.764,0.911,0.772,1.41l0.052,2.996
	c0.009,0.499,0.336,0.654,0.727,0.343l2.347-1.863c0.391-0.31,1.102-0.445,1.58-0.299l1.525,0.467l32.063,26.554l-1.941,0.668
	c-0.472,0.163-0.518,0.521-0.102,0.797l2.497,1.656c0.416,0.276,0.764,0.91,0.772,1.41l0.052,2.996
	c0.008,0.499,0.336,0.654,0.727,0.343l2.347-1.863c0.391-0.31,1.102-0.445,1.579-0.299l2.865,0.877
	c0.423,0.129,0.647-0.073,0.576-0.443l18.166,10.218l-0.982,0.338c-0.472,0.163-0.518,0.521-0.102,0.797l2.497,1.656
	c0.416,0.276,0.764,0.91,0.772,1.41l0.052,2.996c0.009,0.499,0.336,0.654,0.727,0.343l2.347-1.863
	c0.391-0.31,1.102-0.445,1.58-0.299l2.865,0.877c0.477,0.146,0.726-0.117,0.551-0.585l-1.047-2.807
	c-0.174-0.468-0.083-1.186,0.204-1.595l1.719-2.454c0.286-0.409,0.113-0.726-0.386-0.705l-2.993,0.128
	c-0.499,0.021-1.153-0.288-1.454-0.687l-1.803-2.393c-0.301-0.399-0.656-0.332-0.79,0.149l-0.803,2.887
	c-0.035,0.124-0.094,0.249-0.169,0.372l-22.097-12.429c0.017-0.246,0.077-0.482,0.174-0.689l27.456-7.368
	c0.126,0.243,0.209,0.507,0.213,0.742l0.052,2.996c0.009,0.499,0.336,0.654,0.727,0.343l2.347-1.863
	c0.391-0.31,1.102-0.445,1.58-0.299l2.865,0.877c0.478,0.146,0.726-0.118,0.551-0.585l-1.047-2.807
	c-0.174-0.468-0.083-1.186,0.204-1.595l1.719-2.454c0.286-0.409,0.113-0.726-0.386-0.705l-2.993,0.128
	c-0.499,0.021-1.153-0.288-1.454-0.687l-1.803-2.393c-0.301-0.399-0.656-0.331-0.79,0.149l-0.803,2.887
	c-0.134,0.481-0.63,1.008-1.102,1.17l-2.833,0.975c-0.472,0.163-0.518,0.521-0.102,0.797l0.468,0.31l-22.986,6.169
	c-0.082-0.1-0.225-0.164-0.444-0.155l-2.994,0.128c-0.499,0.021-1.153-0.288-1.454-0.687l-1.803-2.393
	c-0.3-0.399-0.656-0.331-0.79,0.149l-0.742,2.669l-33.12-27.43l-0.154-0.412c-0.174-0.468-0.083-1.185,0.204-1.594l1.719-2.454
	c0.286-0.409,0.113-0.726-0.386-0.705L87.621,921c-0.499,0.021-1.153-0.288-1.454-0.687l-1.803-2.393
	c-0.072-0.095-0.147-0.16-0.221-0.203c-4.657-14.682-10.386-33.36-12.609-42.061l2.676,0.819c0.478,0.146,0.726-0.117,0.551-0.585
	l-1.047-2.807c-0.174-0.468-0.083-1.186,0.204-1.595l1.719-2.454c0.013-0.019,0.013-0.034,0.024-0.053
	c4.766-2.677,13.181-7.748,28.183-17.31l0.028,1.645c0.009,0.499,0.336,0.654,0.727,0.343l2.347-1.863
	c0.391-0.31,1.102-0.445,1.58-0.299l2.865,0.877c0.478,0.146,0.726-0.117,0.551-0.585l-0.718-1.925l13.163,4.444
	c-0.12,0.174-0.066,0.39,0.21,0.574l2.497,1.656c0.416,0.276,0.764,0.91,0.772,1.41l0.051,2.996
	c0.009,0.499,0.336,0.654,0.727,0.343l2.347-1.863c0.078-0.062,0.176-0.111,0.276-0.159l7.83,15.985l-0.251,0.903
	c-0.188,0.676-0.885,1.416-1.549,1.645l-3.982,1.37c-0.664,0.228-0.728,0.733-0.143,1.121l3.509,2.327
	c0.585,0.388,1.074,1.28,1.085,1.982l0.073,4.21c0.012,0.702,0.472,0.919,1.021,0.483l3.298-2.619c0.55-0.436,1.548-0.626,2.22-0.42
	l4.027,1.232c0.671,0.205,1.02-0.165,0.774-0.823l-1.471-3.945c-0.246-0.658-0.117-1.666,0.286-2.241l2.416-3.449
	c0.31-0.443,0.229-0.803-0.142-0.934l27.046-23.332l0.03,1.768c0.009,0.499,0.336,0.654,0.727,0.343l2.347-1.863
	c0.391-0.311,1.102-0.445,1.58-0.299l2.865,0.877c0.478,0.146,0.726-0.117,0.551-0.585l-1.047-2.807
	c-0.174-0.468-0.083-1.186,0.204-1.595l0.114-0.163l35.641-12.329c0.23,0.384,0.386,0.818,0.393,1.203l0.072,4.21
	c0.012,0.702,0.472,0.919,1.022,0.482l3.23-2.565l9.769,34.401c-0.054,0.085-0.109,0.17-0.144,0.295l-1.129,4.057
	c-0.188,0.676-0.885,1.417-1.549,1.645l-3.982,1.37c-0.664,0.229-0.728,0.733-0.143,1.121l3.509,2.327
	c0.585,0.388,1.074,1.28,1.086,1.982l0.072,4.21c0.012,0.702,0.472,0.919,1.021,0.482l2.027-1.609l-7.137,29.702
	c-0.062-0.069-0.13-0.136-0.184-0.208l-4.752-6.31c-0.792-1.052-1.729-0.875-2.082,0.394l-2.118,7.61
	c-0.353,1.269-1.661,2.657-2.906,3.086l-7.469,2.57c-1.245,0.428-1.366,1.374-0.269,2.102l6.583,4.365
	c1.097,0.728,2.014,2.4,2.036,3.717l0.136,7.898c0.023,1.317,0.885,1.724,1.916,0.905l6.186-4.912
	c0.998-0.793,2.781-1.144,4.037-0.817l4.95,15.314c-0.222,0.33-0.557,0.624-0.887,0.738l-2.833,0.975
	c-0.472,0.163-0.518,0.521-0.102,0.797l2.497,1.656c0.416,0.276,0.764,0.91,0.772,1.41l0.052,2.996
	c0.009,0.499,0.336,0.654,0.727,0.343l2.347-1.863c0.391-0.311,1.102-0.445,1.58-0.299l2.865,0.877
	c0.478,0.146,0.726-0.117,0.551-0.585l-1.047-2.807c-0.174-0.468-0.083-1.186,0.204-1.595l1.719-2.454
	c0.286-0.409,0.113-0.727-0.386-0.705l-2.993,0.128c-0.499,0.021-1.153-0.288-1.454-0.687l-1.803-2.393
	c-0.081-0.108-0.167-0.176-0.251-0.216l-3.461-10.708l4.634,1.418c1.259,0.385,1.913-0.309,1.453-1.543l-2.76-7.401
	c-0.46-1.234-0.218-3.126,0.537-4.204l4.532-6.469c0.756-1.079,0.297-1.915-1.018-1.859l-7.892,0.338
	c-0.407,0.017-0.852-0.057-1.297-0.187l7.835-32.612c0.154,0.011,0.308,0.025,0.441,0.066l4.027,1.232
	c0.671,0.205,1.02-0.164,0.774-0.822l-1.471-3.945c-0.002-0.004-0.001-0.009-0.003-0.012l20.936,4.711
	c-0.156,0.179-0.105,0.414,0.19,0.61l2.497,1.656c0.416,0.276,0.764,0.91,0.773,1.41l0.051,2.996
	c0.009,0.499,0.336,0.654,0.727,0.343l2.347-1.863c0.391-0.31,1.102-0.445,1.58-0.299l2.865,0.877
	c0.477,0.146,0.726-0.117,0.551-0.585l-1.047-2.807c-0.175-0.468-0.083-1.186,0.204-1.595l1.719-2.454
	C276.08,887.326,275.907,887.009,275.407,887.03z M145.663,876.212c-0.701,0.03-1.621-0.404-2.043-0.965l-2.533-3.364
	c-0.286-0.38-0.601-0.436-0.838-0.236l-5.863-11.97l1.052,0.322c0.478,0.146,0.726-0.117,0.551-0.585l-1.047-2.807
	c-0.175-0.468-0.083-1.186,0.204-1.595l1.719-2.454c0.287-0.409,0.113-0.727-0.386-0.705l-0.812,0.035l12.181-12.174l0.11,6.375
	c0.023,1.317,0.885,1.724,1.916,0.905l6.186-4.912c1.031-0.819,2.905-1.174,4.165-0.788l7.553,2.311
	c1.121,0.343,1.756-0.172,1.56-1.158l6.413,4.661l-1.623,0.559c-0.472,0.163-0.518,0.521-0.102,0.797l2.41,1.598l-30.289,26.13
	L145.663,876.212z M56.129,151.193l2.833-0.975c0.472-0.163,0.968-0.689,1.102-1.17l0.803-2.887c0.134-0.481,0.489-0.549,0.79-0.15
	l1.802,2.393c0.034,0.046,0.087,0.084,0.13,0.127l46.407-51.49c-0.34-1.008-1.024-2.008-1.807-2.527l-6.583-4.365
	c-1.098-0.728-0.977-1.674,0.269-2.102l7.469-2.57c1.245-0.429,2.553-1.817,2.906-3.086l2.118-7.61
	c0.353-1.269,1.29-1.446,2.082-0.394l4.752,6.31c0.792,1.052,2.517,1.867,3.832,1.81l7.892-0.338
	c1.316-0.056,1.774,0.78,1.018,1.859l-4.532,6.469c-0.756,1.079-0.997,2.971-0.537,4.204l2.084,5.588l83.915,71.706
	c0.314-0.427,0.559-0.884,0.682-1.328l2.118-7.61c0.353-1.269,1.29-1.446,2.082-0.394l4.752,6.31
	c0.792,1.052,2.517,1.867,3.832,1.81l7.892-0.338c1.316-0.056,1.774,0.78,1.018,1.859l-4.532,6.469
	c-0.756,1.079-0.997,2.971-0.537,4.204l2.76,7.401c0.46,1.234-0.194,1.928-1.453,1.543l-3.775-1.155
	c1.857,3.042,3.891,6.381,5.926,9.732c4.891,8.056,8.059,13.296,10.098,16.753l0.486-1.746c0.188-0.676,0.688-0.771,1.11-0.21
	l2.533,3.363c0.422,0.561,1.342,0.995,2.043,0.965l4.207-0.18c0.701-0.03,0.946,0.416,0.543,0.991l-2.416,3.449
	c-0.403,0.575-0.532,1.583-0.286,2.241l1.472,3.945c0.245,0.658-0.103,1.028-0.775,0.822l-4.026-1.232
	c-0.671-0.205-1.67-0.016-2.22,0.42l-0.187,0.148c-0.695,4.584-1.64,11.066-2.454,16.729c0.316,0.199,0.697,0.332,1.021,0.318
	l2.993-0.128c0.499-0.021,0.673,0.296,0.386,0.705l-1.719,2.454c-0.287,0.409-0.378,1.127-0.204,1.595l1.047,2.807
	c0.174,0.468-0.073,0.731-0.551,0.585l-2.865-0.877c-0.478-0.146-1.189-0.012-1.579,0.299l-2.347,1.863
	c-0.392,0.311-0.719,0.156-0.727-0.343l-0.051-2.996c-0.009-0.499-0.356-1.134-0.772-1.41l-2.497-1.656
	c-0.416-0.276-0.37-0.635,0.102-0.797l2.833-0.975c0.473-0.162,0.969-0.689,1.102-1.17l0.803-2.887
	c0.133-0.476,0.481-0.543,0.78-0.159c0.712-4.946,1.264-8.708,1.692-11.569l-0.103,0.082c-0.55,0.437-1.01,0.219-1.022-0.483
	l-0.072-4.21c-0.012-0.702-0.501-1.594-1.086-1.982l-3.509-2.327c-0.585-0.388-0.521-0.892,0.143-1.121l3.982-1.37
	c0.363-0.125,0.727-0.407,1.021-0.744c-3.665-6.281-11.438-19.1-18.619-30.849l-0.012-0.004c-1.259-0.385-3.133-0.03-4.165,0.788
	l-6.186,4.912c-1.031,0.819-1.893,0.412-1.916-0.905l-0.136-7.898c-0.023-1.317-0.939-2.989-2.037-3.717l-6.583-4.365
	c-1.098-0.728-0.977-1.674,0.269-2.102l7.469-2.57c0.056-0.019,0.112-0.05,0.169-0.073l-81.848-69.94
	c-0.225,0.024-0.488-0.003-0.789-0.095l-7.553-2.311c-1.259-0.385-3.133-0.031-4.165,0.788l-6.186,4.912
	c-1.031,0.819-1.894,0.411-1.916-0.905l-0.094-5.481l-43.592,48.367l1.231-0.053c0.499-0.021,0.673,0.296,0.386,0.705l-1.719,2.454
	c-0.287,0.409-0.378,1.127-0.204,1.595l1.047,2.807c0.175,0.468-0.073,0.731-0.551,0.585l-2.865-0.877
	c-0.477-0.146-1.188-0.011-1.58,0.299l-2.347,1.863c-0.391,0.311-0.718,0.156-0.727-0.343l-0.051-2.996
	c-0.009-0.499-0.356-1.134-0.772-1.41l-2.497-1.656C55.611,151.715,55.657,151.356,56.129,151.193z M944.466,329.946l2.833-0.975
	c0.473-0.163,0.968-0.689,1.102-1.17l0.803-2.887c0.134-0.481,0.49-0.548,0.79-0.149l1.372,1.822l27.564-48.691l-0.045-2.608
	c-0.023-1.317-0.94-2.989-2.037-3.717l-6.583-4.365c-1.098-0.728-0.977-1.674,0.268-2.102l7.469-2.57
	c1.245-0.428,2.553-1.817,2.906-3.085l2.117-7.61c0.353-1.269,1.29-1.446,2.082-0.394l1.16,1.539l1.353-14.796l-0.137,0.109
	c-0.391,0.311-0.718,0.156-0.727-0.343l-0.052-2.996c-0.008-0.499-0.356-1.134-0.772-1.41l-2.497-1.656
	c-0.416-0.276-0.37-0.635,0.102-0.797l2.833-0.975c0.472-0.163,0.968-0.689,1.102-1.17l0.213-0.768l-7.556-59.737l-2.379,1.89
	c-0.55,0.437-1.01,0.219-1.022-0.483l-0.072-4.21c-0.012-0.702-0.501-1.594-1.086-1.982l-3.51-2.327
	c-0.585-0.388-0.521-0.892,0.144-1.121l3.982-1.37c0.664-0.228,1.36-0.969,1.549-1.645l1.129-4.057
	c0.188-0.676,0.688-0.771,1.11-0.21l2.534,3.363c0.422,0.561,1.342,0.995,2.043,0.965l4.206-0.18
	c0.701-0.03,0.946,0.416,0.543,0.991l-2.415,3.449c-0.403,0.575-0.532,1.583-0.287,2.241l1.472,3.945
	c0.245,0.658-0.103,1.028-0.775,0.822l-4.026-1.232c-0.197-0.06-0.423-0.077-0.656-0.074l7.619,60.242l0.635,0.844
	c0.301,0.399,0.955,0.708,1.454,0.687l2.993-0.128c0.499-0.021,0.673,0.296,0.386,0.705l-1.719,2.454
	c-0.286,0.409-0.378,1.127-0.204,1.595l1.047,2.807c0.175,0.468-0.073,0.731-0.551,0.585l-2.865-0.877
	c-0.284-0.087-0.644-0.065-0.977,0.024l-1.823,19.936l1.25,1.66c0.793,1.052,2.517,1.866,3.833,1.81l7.892-0.338
	c1.316-0.056,1.774,0.78,1.018,1.859l-4.532,6.47c-0.756,1.078-0.997,2.97-0.537,4.204l2.76,7.401
	c0.461,1.234-0.193,1.928-1.453,1.543l-0.317-0.097l57.043,69.835l0.505-1.814c0.134-0.481,0.49-0.549,0.79-0.149l1.803,2.393
	c0.3,0.399,0.954,0.708,1.454,0.687l2.994-0.128c0.499-0.021,0.672,0.296,0.386,0.705l-1.719,2.454
	c-0.287,0.409-0.379,1.127-0.204,1.595l1.047,2.807c0.174,0.468-0.073,0.731-0.551,0.585l-2.865-0.877
	c-0.478-0.146-1.189-0.012-1.579,0.299l-2.346,1.863c-0.392,0.311-0.719,0.156-0.727-0.343l-0.052-2.996
	c-0.009-0.499-0.356-1.134-0.773-1.41l-2.497-1.656c-0.417-0.276-0.37-0.635,0.102-0.797l2.72-0.936l-60.032-73.495l-2.733-0.836
	c-1.259-0.385-3.133-0.031-4.165,0.788l-6.186,4.912c-1.031,0.819-1.894,0.412-1.917-0.905l-0.002-0.136l-25.349,44.778l2.574-0.11
	c0.499-0.021,0.673,0.296,0.386,0.705l-1.719,2.454c-0.287,0.409-0.379,1.127-0.204,1.595l1.047,2.807
	c0.174,0.468-0.073,0.731-0.551,0.585l-2.865-0.877c-0.478-0.146-1.189-0.012-1.579,0.299l-2.347,1.863
	c-0.391,0.311-0.719,0.156-0.727-0.343l-0.052-2.996c-0.009-0.499-0.356-1.134-0.773-1.41l-2.497-1.656
	C943.948,330.467,943.994,330.108,944.466,329.946z M941.832,629.646l2.833-0.975c0.473-0.163,0.968-0.689,1.102-1.17l0.803-2.886
	c0.134-0.481,0.49-0.548,0.79-0.149l0.584,0.776l3.297-9.909c-0.132-0.373-0.381-0.74-0.671-0.932l-2.497-1.656
	c-0.416-0.276-0.371-0.635,0.102-0.797l2.833-0.975c0.472-0.162,0.968-0.689,1.102-1.17l0.803-2.887
	c0.134-0.481,0.49-0.548,0.79-0.149l1.357,1.802l8.847-6.044l-1.456-0.965c-0.585-0.388-0.521-0.892,0.143-1.121l3.982-1.37
	c0.664-0.228,1.361-0.969,1.549-1.645l1.129-4.057c0.188-0.676,0.688-0.771,1.11-0.21l2.533,3.364
	c0.423,0.561,1.342,0.995,2.043,0.965l4.207-0.18c0.701-0.03,0.945,0.416,0.543,0.991l-2.416,3.449
	c-0.403,0.575-0.531,1.584-0.286,2.241l1.471,3.945c0.245,0.658-0.103,1.028-0.774,0.823l-4.027-1.232
	c-0.671-0.206-1.67-0.017-2.22,0.42l-3.297,2.619c-0.55,0.437-1.009,0.219-1.021-0.482l-0.073-4.21
	c-0.01-0.594-0.369-1.306-0.831-1.752l-8.329,5.69l2.067-0.088c0.499-0.021,0.673,0.296,0.386,0.705l-1.719,2.454
	c-0.287,0.409-0.379,1.127-0.204,1.595l1.047,2.807c0.174,0.468-0.073,0.731-0.551,0.585l-2.865-0.877
	c-0.478-0.146-1.189-0.011-1.579,0.299l-1.521,1.208l-2.97,8.924c0.217,0.082,0.439,0.137,0.639,0.128l2.993-0.128
	c0.499-0.021,0.673,0.296,0.386,0.705l-1.719,2.454c-0.287,0.409-0.379,1.127-0.204,1.595l0.704,1.888l6.225,7.89
	c0.074-0.164,0.136-0.329,0.181-0.491l2.117-7.61c0.353-1.269,1.29-1.446,2.082-0.394l4.752,6.31
	c0.792,1.052,2.517,1.867,3.832,1.81l7.892-0.338c1.316-0.056,1.774,0.78,1.018,1.859l-3.913,5.587l23.274-1.973
	c0.024-0.057,0.06-0.113,0.075-0.169l0.803-2.886c0.134-0.482,0.49-0.549,0.79-0.15l1.584,2.103l19.327-11.79l-1.829-1.212
	c-0.416-0.276-0.37-0.635,0.102-0.797l2.833-0.975c0.473-0.163,0.968-0.689,1.102-1.17l0.803-2.887
	c0.133-0.481,0.489-0.549,0.789-0.149l0.494,0.656l3.533-13.685l-0.043-2.504c-0.009-0.499-0.356-1.134-0.773-1.41l-2.497-1.656
	c-0.416-0.276-0.37-0.635,0.102-0.797l2.833-0.975c0.473-0.163,0.968-0.689,1.102-1.171l0.803-2.886
	c0.085-0.306,0.262-0.424,0.455-0.382l1.324-15.377l-0.816,0.647c-0.549,0.437-1.009,0.22-1.021-0.482l-0.072-4.21
	c-0.012-0.702-0.501-1.594-1.086-1.982l-3.51-2.327c-0.585-0.388-0.521-0.892,0.143-1.121l3.982-1.37
	c0.664-0.228,1.36-0.969,1.549-1.645l1.129-4.057c0.188-0.676,0.688-0.771,1.11-0.21l1.842,2.445l16.449-38.214l-0.004-0.259
	c-0.009-0.499-0.356-1.134-0.773-1.41l-2.497-1.656c-0.417-0.276-0.37-0.635,0.102-0.797l2.833-0.975
	c0.472-0.163,0.968-0.689,1.102-1.17l0.803-2.887c0.134-0.481,0.489-0.549,0.79-0.15l1.802,2.393c0.119,0.157,0.3,0.293,0.497,0.407
	l6.714-5.792c-0.348-0.558-0.78-1.049-1.252-1.361l-6.583-4.365c-1.097-0.728-0.977-1.674,0.269-2.102l7.469-2.57
	c1.245-0.429,2.553-1.817,2.905-3.085l2.118-7.61c0.353-1.269,1.29-1.446,2.082-0.394l4.752,6.31
	c0.792,1.052,2.516,1.866,3.832,1.81l4.843-0.207l7.987-4.408l-1.657-1.099c-0.416-0.276-0.37-0.635,0.102-0.797l2.833-0.975
	c0.472-0.163,0.968-0.689,1.102-1.17l0.803-2.887c0.134-0.481,0.489-0.548,0.79-0.149l1.802,2.393
	c0.3,0.399,0.955,0.708,1.454,0.687l1.323-0.057l22.111-9.084l-1.154-0.765c-0.416-0.276-0.37-0.635,0.102-0.797l2.775-0.954
	l-13.446-16.993c-0.418-0.008-0.888,0.125-1.18,0.357l-2.346,1.863c-0.392,0.31-0.719,0.156-0.727-0.343l-0.052-2.996
	c-0.008-0.499-0.356-1.134-0.772-1.41l-2.497-1.656c-0.416-0.276-0.37-0.635,0.102-0.797l2.833-0.975
	c0.473-0.163,0.969-0.689,1.102-1.171l0.803-2.887c0.134-0.481,0.489-0.548,0.789-0.149l1.803,2.393
	c0.3,0.399,0.955,0.708,1.454,0.687l2.994-0.128c0.499-0.021,0.673,0.296,0.386,0.705l-1.719,2.454
	c-0.287,0.409-0.378,1.127-0.204,1.594l1.047,2.808c0.046,0.123,0.059,0.229,0.05,0.321l11.06,13.979l0.482-1.733
	c0.134-0.481,0.49-0.548,0.79-0.149l1.803,2.393c0.3,0.399,0.954,0.708,1.454,0.687l2.993-0.128
	c0.499-0.021,0.673,0.296,0.386,0.705l-1.719,2.454c-0.287,0.409-0.379,1.127-0.204,1.595l1.047,2.807
	c0.174,0.468-0.073,0.731-0.551,0.585l-2.865-0.877c-0.179-0.055-0.391-0.059-0.606-0.04v20.54l0.065,0.086
	c0.3,0.399,0.954,0.708,1.454,0.687l2.993-0.128c0.499-0.021,0.673,0.296,0.386,0.705l-1.719,2.454
	c-0.287,0.409-0.379,1.127-0.204,1.594l1.047,2.807c0.174,0.468-0.073,0.732-0.551,0.585l-2.865-0.877
	c-0.478-0.146-1.189-0.012-1.579,0.299l-2.347,1.863c-0.391,0.311-0.719,0.156-0.727-0.343l-0.052-2.996
	c-0.009-0.499-0.356-1.134-0.773-1.41l-2.497-1.656c-0.416-0.276-0.37-0.635,0.102-0.797l2.833-0.975
	c0.473-0.163,0.968-0.689,1.102-1.17l0.715-2.568v-17.057l-0.704,0.559c-0.391,0.311-0.719,0.156-0.727-0.343l-0.052-2.996
	c-0.002-0.102-0.026-0.211-0.054-0.32l-23.444,9.632l-0.392,0.559c-0.286,0.409-0.378,1.127-0.204,1.595l1.047,2.807
	c0.175,0.468-0.073,0.731-0.551,0.585l-2.865-0.877c-0.477-0.146-1.189-0.012-1.579,0.299l-2.347,1.863
	c-0.391,0.311-0.718,0.156-0.727-0.343l-0.049-2.866l-5.206,2.873c0.079,0.317-0.015,0.718-0.328,1.166l-4.532,6.47
	c-0.755,1.078-0.998,2.97-0.537,4.204l2.76,7.401c0.46,1.234-0.194,1.928-1.453,1.543l-7.553-2.311
	c-1.259-0.385-3.133-0.031-4.165,0.788l-6.186,4.912c-1.031,0.819-1.893,0.411-1.916-0.905l-0.129-7.482l-3.683,3.177l0.126-0.005
	c0.499-0.021,0.673,0.296,0.386,0.705l-1.719,2.454c-0.286,0.409-0.378,1.127-0.204,1.595l1.047,2.807
	c0.175,0.468-0.073,0.732-0.551,0.585l-2.865-0.877c-0.478-0.146-1.188-0.011-1.58,0.299l-1.209,0.96l-16.281,37.826
	c0.225,0.063,0.45,0.103,0.655,0.094l4.207-0.18c0.701-0.03,0.946,0.416,0.543,0.991l-2.416,3.449
	c-0.402,0.575-0.531,1.584-0.286,2.241l1.471,3.945c0.245,0.658-0.103,1.028-0.774,0.823l-4.026-1.232
	c-0.557-0.171-1.327-0.058-1.891,0.231l-1.756,20.4c0.337,0.276,0.819,0.466,1.212,0.45l2.994-0.128
	c0.499-0.021,0.672,0.296,0.386,0.705l-1.719,2.454c-0.287,0.409-0.379,1.127-0.204,1.595l1.047,2.807
	c0.174,0.468-0.073,0.731-0.551,0.585l-2.865-0.877c-0.478-0.146-1.189-0.011-1.58,0.299l-0.144,0.114l-4.359,16.89
	c0.22,0.085,0.448,0.141,0.651,0.133l2.994-0.128c0.499-0.021,0.672,0.296,0.386,0.705l-1.719,2.454
	c-0.287,0.409-0.379,1.127-0.204,1.595l1.047,2.807c0.174,0.468-0.073,0.732-0.551,0.585l-2.865-0.877
	c-0.478-0.146-1.189-0.011-1.579,0.299l-2.346,1.863c-0.392,0.311-0.719,0.156-0.727-0.343l-0.046-2.668l-17.221,10.505l1.113-0.048
	c0.499-0.021,0.673,0.296,0.386,0.705l-1.719,2.454c-0.287,0.409-0.379,1.127-0.204,1.595l1.047,2.807
	c0.174,0.468-0.073,0.731-0.551,0.585l-2.865-0.877c-0.478-0.146-1.189-0.011-1.58,0.299l-2.346,1.863
	c-0.391,0.31-0.718,0.156-0.727-0.343l-0.051-2.996c-0.009-0.499-0.356-1.134-0.773-1.41l-2.247-1.49l-20.871,1.769
	c-0.133,0.821-0.096,1.682,0.153,2.351l2.76,7.401c0.461,1.234-0.193,1.928-1.453,1.543l-7.553-2.311
	c-1.259-0.385-3.133-0.031-4.165,0.788l-6.186,4.912c-1.031,0.819-1.894,0.412-1.917-0.905l-0.135-7.898
	c-0.023-1.317-0.94-2.989-2.037-3.717l-6.584-4.365c-1.097-0.728-0.976-1.674,0.269-2.102l7.469-2.57
	c0.339-0.117,0.681-0.309,1.008-0.546l-7.271-9.216l-0.311-0.095c-0.478-0.146-1.189-0.012-1.579,0.299l-2.346,1.863
	c-0.391,0.31-0.719,0.156-0.727-0.344L945,633.509c-0.009-0.499-0.356-1.134-0.773-1.41l-2.497-1.656
	C941.314,630.167,941.36,629.808,941.832,629.646z M606.369,631.258l-2.605,0.111c1.808-4.831,5.225-14.002,11.682-31.397
	l0.799-0.635c0.391-0.31,1.102-0.445,1.579-0.299l2.865,0.877c0.478,0.146,0.726-0.117,0.551-0.585l-1.047-2.807
	c-0.174-0.468-0.083-1.186,0.204-1.595l1.719-2.454c0.286-0.409,0.113-0.727-0.386-0.705l-2.993,0.128
	c-0.499,0.021-1.153-0.288-1.454-0.687l-1.803-2.393c-0.3-0.399-0.656-0.331-0.79,0.149l-0.498,1.79l-10.955-13.542
	c-0.008-0.058-0.006-0.111-0.031-0.179l-1.047-2.807c-0.175-0.468-0.083-1.186,0.204-1.595l1.719-2.454
	c0.286-0.409,0.113-0.727-0.386-0.705l-2.993,0.128c-0.499,0.021-1.153-0.287-1.454-0.687l-1.803-2.393
	c-0.3-0.399-0.656-0.331-0.79,0.15l-0.803,2.887c-0.134,0.481-0.63,1.008-1.102,1.17l-2.833,0.975
	c-0.472,0.162-0.518,0.521-0.102,0.797l2.497,1.656c0.416,0.276,0.764,0.91,0.773,1.41l0.051,2.996
	c0.009,0.499,0.336,0.654,0.727,0.343l2.346-1.863c0.307-0.244,0.808-0.373,1.242-0.349l13.237,16.363l-2.737,0.942
	c-0.472,0.163-0.518,0.521-0.102,0.797l2.497,1.656c0.416,0.276,0.764,0.91,0.773,1.41l0.014,0.819
	c-3.746,10.09-8.848,23.82-11.68,31.398l-1.336-1.773c-0.3-0.399-0.656-0.332-0.79,0.15l-0.803,2.886
	c-0.134,0.482-0.63,1.008-1.102,1.171l-2.833,0.975c-0.472,0.163-0.518,0.521-0.102,0.797l2.497,1.656
	c0.416,0.276,0.764,0.911,0.772,1.41l0.008,0.467c-2.864,3.95-8.769,12.049-13.049,17.914c-0.056-0.057-0.126-0.109-0.172-0.169
	l-2.533-3.364c-0.422-0.561-0.922-0.466-1.11,0.21l-1.129,4.057c-0.188,0.676-0.885,1.416-1.549,1.645l-3.054,1.051l-18.862-0.911
	l1.764-2.519c0.403-0.575,0.158-1.021-0.543-0.991l-4.207,0.18c-0.702,0.03-1.621-0.404-2.043-0.965l-2.533-3.364
	c-0.422-0.561-0.922-0.466-1.11,0.21l-1.129,4.057c-0.081,0.293-0.269,0.591-0.497,0.861l-23.663-14.048l-0.508-1.363
	c-0.46-1.234-0.218-3.126,0.537-4.204l4.532-6.47c0.756-1.078,0.297-1.915-1.018-1.859l-7.892,0.338
	c-1.316,0.056-3.04-0.758-3.833-1.81l-4.752-6.31c-0.792-1.052-1.729-0.875-2.082,0.394l-2.117,7.61
	c-0.353,1.269-1.661,2.657-2.906,3.085l-7.469,2.57c-1.245,0.428-1.366,1.374-0.269,2.102l6.583,4.365
	c1.098,0.728,2.014,2.401,2.037,3.717l0.136,7.898c0.023,1.317,0.885,1.724,1.916,0.905l6.186-4.912
	c1.031-0.819,2.905-1.174,4.165-0.788l7.553,2.311c1.259,0.385,1.913-0.309,1.453-1.543l-0.795-2.131l19.411,11.524l-2.24,0.771
	c-0.664,0.228-0.728,0.733-0.143,1.121l3.509,2.327c0.585,0.388,1.074,1.28,1.086,1.982l0.072,4.21
	c0.001,0.018,0.008,0.026,0.009,0.043l-12.31,41.447l-2.287-3.036c-0.422-0.561-0.922-0.466-1.11,0.21l-1.129,4.057
	c-0.188,0.676-0.885,1.416-1.549,1.645l-3.982,1.37c-0.664,0.228-0.728,0.733-0.143,1.121l3.509,2.327
	c0.041,0.027,0.076,0.072,0.115,0.103l-26.97,15.99c-0.465-0.049-0.998-0.315-1.262-0.666l-1.803-2.393
	c-0.301-0.399-0.656-0.332-0.79,0.149l-0.803,2.886c-0.134,0.481-0.63,1.008-1.102,1.17l-2.834,0.975
	c-0.472,0.162-0.518,0.521-0.102,0.797l2.497,1.656c0.111,0.074,0.216,0.176,0.312,0.291l-36.055,42.064
	c-0.019-0.022-0.047-0.04-0.064-0.063l-1.803-2.393c-0.301-0.399-0.656-0.332-0.79,0.149l-0.803,2.887
	c-0.134,0.481-0.63,1.008-1.102,1.17l-2.833,0.975c-0.472,0.162-0.518,0.521-0.102,0.797l2.497,1.656
	c0.416,0.276,0.764,0.91,0.772,1.41l0.052,2.996c0.008,0.499,0.336,0.654,0.727,0.343l2.346-1.863
	c0.391-0.311,1.102-0.445,1.579-0.299l2.865,0.877c0.478,0.146,0.726-0.117,0.551-0.585l-1.047-2.807
	c-0.175-0.468-0.083-1.186,0.204-1.595l1.719-2.454c0.287-0.409,0.113-0.727-0.386-0.705l-1.415,0.061l33.588-39.184l0.012,0.678
	c0.008,0.499,0.336,0.654,0.727,0.343l2.347-1.863c0.391-0.311,1.102-0.445,1.579-0.299l2.865,0.877
	c0.478,0.146,0.726-0.117,0.551-0.585l-1.047-2.807c-0.175-0.468-0.083-1.186,0.204-1.595l1.328-1.896l24.77-14.686l0.063,3.628
	c0.012,0.702,0.472,0.919,1.022,0.483l3.297-2.619c0.55-0.437,1.549-0.626,2.22-0.42l4.027,1.232
	c0.671,0.206,1.02-0.164,0.774-0.822l-0.539-1.444l41.793,23.954l-1.033,0.355c-0.472,0.162-0.518,0.521-0.102,0.797l2.497,1.656
	c0.069,0.046,0.133,0.114,0.197,0.178l-33.236,35.333l-3.87,0.165c-1.315,0.057-3.04-0.758-3.832-1.81l-4.752-6.31
	c-0.792-1.052-1.729-0.874-2.082,0.394l-2.117,7.61c-0.328,1.179-1.481,2.451-2.642,2.971l-8.188-4.456
	c0.031-0.309,0.123-0.615,0.277-0.833l1.719-2.454c0.286-0.409,0.113-0.726-0.386-0.705l-2.993,0.128
	c-0.499,0.021-1.153-0.288-1.454-0.687l-1.803-2.393c-0.3-0.399-0.656-0.332-0.79,0.149l-0.803,2.886
	c-0.134,0.481-0.63,1.008-1.102,1.17l-2.833,0.975c-0.472,0.163-0.518,0.521-0.102,0.797l2.497,1.656
	c0.061,0.04,0.115,0.102,0.172,0.156l-21.241,22.164c-0.077-0.066-0.155-0.133-0.21-0.207l-1.803-2.393
	c-0.3-0.399-0.656-0.332-0.79,0.15l-0.803,2.886c-0.134,0.482-0.63,1.008-1.102,1.171l-2.833,0.975
	c-0.472,0.163-0.518,0.521-0.102,0.797l2.497,1.656c0.416,0.276,0.764,0.911,0.772,1.41l0.052,2.996
	c0.008,0.499,0.336,0.654,0.727,0.343l2.347-1.863c0.391-0.311,1.102-0.445,1.579-0.299l2.865,0.877
	c0.478,0.146,0.726-0.117,0.551-0.585l-1.047-2.807c-0.175-0.468-0.083-1.186,0.204-1.595l1.719-2.454
	c0.286-0.409,0.113-0.726-0.386-0.705l-0.992,0.042l18.629-19.438l0.019,1.13c0.009,0.499,0.336,0.654,0.727,0.343l2.346-1.863
	c0.391-0.31,1.102-0.445,1.58-0.299l2.865,0.877c0.469,0.144,0.712-0.111,0.555-0.564l3.739,2.035l-4.408,1.517
	c-1.245,0.428-1.366,1.374-0.269,2.102l6.583,4.365c1.098,0.728,2.014,2.401,2.036,3.717l0.136,7.898
	c0.023,1.317,0.885,1.724,1.916,0.905l6.186-4.912c1.031-0.819,2.905-1.174,4.164-0.788l7.553,2.311
	c1.259,0.385,1.913-0.309,1.453-1.543l-2.76-7.401c-0.46-1.234-0.218-3.126,0.537-4.204l4.532-6.469
	c0.756-1.078,0.297-1.915-1.018-1.859l-0.28,0.012l30.103-32.003l0.019,1.057c0.008,0.499,0.336,0.654,0.727,0.343l2.346-1.863
	c0.391-0.311,1.102-0.445,1.579-0.299l2.865,0.877c0.478,0.146,0.726-0.117,0.551-0.585l-1.047-2.807
	c-0.175-0.468-0.083-1.186,0.204-1.595l1.719-2.454c0.287-0.409,0.113-0.727-0.386-0.705l-2.994,0.128
	c-0.499,0.021-1.153-0.288-1.454-0.687l-1.444-1.917l-7.206-28.756l2.37,0.725c0.478,0.146,0.726-0.117,0.551-0.585l-1.047-2.807
	c-0.175-0.468-0.083-1.186,0.204-1.595l1.719-2.454c0.287-0.409,0.113-0.727-0.386-0.705l-2.993,0.128
	c-0.308,0.013-0.667-0.108-0.973-0.289l5.597-35.474l0.134-0.106c0.55-0.436,1.548-0.625,2.22-0.42l4.027,1.232
	c0.671,0.205,1.02-0.165,0.774-0.822l-1.471-3.945c-0.245-0.658-0.117-1.666,0.286-2.241l2.416-3.449
	c0.403-0.575,0.158-1.021-0.543-0.991l-3.394,0.145c5.722-7.842,9.736-13.354,12.021-16.507l1.46-1.159
	c0.391-0.311,1.102-0.445,1.579-0.299l2.865,0.877c0.478,0.146,0.726-0.117,0.551-0.585l-1.047-2.807
	c-0.175-0.468-0.083-1.186,0.204-1.595l1.719-2.454C607.041,631.554,606.867,631.236,606.369,631.258z M575.134,699.857
	l-0.063-0.083c-0.3-0.399-0.656-0.332-0.79,0.149l-0.803,2.886c-0.134,0.481-0.63,1.008-1.102,1.17l-2.834,0.975
	c-0.472,0.163-0.518,0.521-0.102,0.798l2.497,1.656c0.416,0.276,0.764,0.91,0.773,1.41l0.052,2.996
	c0.008,0.499,0.336,0.654,0.727,0.343l1.859-1.476l7.751,30.929c-0.028,0.067-0.05,0.135-0.09,0.202l-45.573-26.121
	c0.048-0.422,0.179-0.836,0.387-1.135l2.416-3.449c0.403-0.575,0.159-1.021-0.543-0.991l-4.151,0.178l13.053-43.946l1.221-0.97
	c0.55-0.437,1.549-0.626,2.22-0.42l4.026,1.232c0.671,0.205,1.02-0.165,0.775-0.823l-1.471-3.945
	c-0.067-0.18-0.101-0.387-0.114-0.603l20.679,0.999l1.674,1.11c0.585,0.388,1.074,1.28,1.086,1.982l0.073,4.21
	c0.012,0.702,0.472,0.919,1.021,0.482l0.137-0.109L575.134,699.857z M289.053,537.651l-2.76-7.401
	c-0.46-1.234-0.218-3.126,0.537-4.204l4.532-6.47c0.756-1.078,0.297-1.915-1.018-1.859l-7.892,0.338
	c-1.316,0.056-3.04-0.758-3.832-1.81l-4.752-6.31c-0.792-1.052-1.729-0.874-2.082,0.394l-0.194,0.697l-7.682-17.585l1.37,0.419
	c0.477,0.146,0.726-0.117,0.551-0.585l-1.047-2.808c-0.174-0.468-0.083-1.185,0.204-1.595l1.719-2.454
	c0.287-0.409,0.113-0.726-0.386-0.705l-2.993,0.128c-0.499,0.021-1.153-0.288-1.454-0.687l-1.802-2.393
	c-0.301-0.399-0.656-0.332-0.79,0.149l-0.803,2.887c-0.069,0.248-0.235,0.506-0.444,0.722l-21.841-8.653
	c0.03-0.941,0.299-1.918,0.766-2.585l4.532-6.469c0.756-1.079,0.297-1.915-1.018-1.859l-7.892,0.338
	c-1.316,0.057-3.04-0.758-3.833-1.81l-3.281-4.356l-1.778-11.621l1.069,0.327c0.478,0.146,0.726-0.117,0.551-0.585l-1.047-2.807
	c-0.175-0.468-0.083-1.186,0.204-1.595l1.719-2.454c0.287-0.409,0.113-0.726-0.386-0.705l-0.113,0.005l23.503-31.289l0.001,0.074
	c0.009,0.499,0.336,0.654,0.727,0.343l2.346-1.863c0.392-0.311,1.102-0.445,1.58-0.299l2.865,0.877
	c0.401,0.123,0.623-0.053,0.587-0.385l15.33,8.755l-2.104,0.724c-0.664,0.228-0.728,0.733-0.143,1.121l3.509,2.327
	c0.585,0.388,1.074,1.28,1.086,1.982l0.073,4.21c0.012,0.702,0.472,0.919,1.022,0.483l3.298-2.619c0.55-0.437,1.549-0.626,2.22-0.42
	l4.027,1.232c0.671,0.205,1.02-0.165,0.774-0.823l-1.471-3.945c-0.245-0.658-0.117-1.666,0.286-2.241l2.416-3.449
	c0.403-0.575,0.158-1.021-0.543-0.991l-4.207,0.18c-0.701,0.03-1.621-0.404-2.043-0.965l-2.533-3.364
	c-0.422-0.561-0.922-0.466-1.11,0.21l-1.129,4.057c-0.088,0.315-0.292,0.639-0.545,0.924l-19.368-11.061
	c0.019-0.341,0.11-0.688,0.279-0.929l1.719-2.454c0.287-0.409,0.113-0.726-0.386-0.705l-2.993,0.128
	c-0.499,0.021-1.153-0.288-1.454-0.687l-1.802-2.393c-0.3-0.399-0.656-0.332-0.79,0.149l-0.803,2.887
	c-0.134,0.481-0.63,1.008-1.102,1.17l-2.833,0.975c-0.473,0.162-0.518,0.521-0.102,0.797l2.497,1.656
	c0.167,0.111,0.316,0.287,0.443,0.482l-26.444,35.204c-0.394-0.104-0.796-0.34-1.014-0.629l-1.802-2.393
	c-0.301-0.399-0.656-0.332-0.79,0.149l-0.803,2.887c-0.134,0.481-0.63,1.008-1.102,1.17l-2.833,0.975
	c-0.472,0.163-0.518,0.521-0.102,0.797l2.497,1.656c0.416,0.276,0.764,0.911,0.772,1.41l0.052,2.996
	c0.008,0.499,0.335,0.654,0.727,0.343l2.347-1.863c0.169-0.135,0.403-0.228,0.647-0.288l1.485,9.705
	c-0.224,0.174-0.413,0.467-0.532,0.895l-2.117,7.61c-0.353,1.269-1.661,2.657-2.906,3.085l-7.469,2.57
	c-1.245,0.429-1.366,1.374-0.269,2.103l5.041,3.343l-74.766,25.128l0.841-1.201c0.756-1.079,0.297-1.915-1.018-1.859l-7.892,0.338
	c-1.316,0.056-3.04-0.758-3.832-1.81l-4.752-6.31c-0.792-1.052-1.73-0.874-2.082,0.394l-2.118,7.61
	c-0.353,1.269-1.661,2.657-2.906,3.086l-7.469,2.57c-1.245,0.428-1.366,1.374-0.269,2.102l6.583,4.365
	c1.098,0.728,2.014,2.4,2.036,3.717l0.068,3.918l-40.209,56.244c-0.878-0.32-1.716-0.874-2.202-1.519l-4.752-6.31
	c-0.792-1.052-1.729-0.874-2.082,0.394l-2.117,7.61c-0.353,1.269-1.661,2.657-2.906,3.086l-7.469,2.57
	c-1.245,0.429-1.366,1.374-0.269,2.102l6.583,4.365c1.098,0.728,2.014,2.4,2.037,3.717l0.136,7.898
	c0.023,1.317,0.885,1.724,1.916,0.905l6.186-4.912c1.031-0.819,2.905-1.174,4.165-0.788l7.553,2.311
	c1.259,0.385,1.913-0.309,1.453-1.543l-2.76-7.401c-0.46-1.234-0.218-3.126,0.537-4.204l4.057-5.791l50.102-24.36
	c0.077,0.222,0.132,0.445,0.135,0.652l0.072,4.21c0.012,0.702,0.472,0.919,1.022,0.482l3.298-2.618
	c0.55-0.437,1.549-0.626,2.22-0.42l4.027,1.232c0.671,0.205,1.02-0.164,0.774-0.822l-1.471-3.945
	c-0.217-0.582-0.128-1.423,0.172-2.011l118.14-21.822l0.643,0.426c1.098,0.728,2.014,2.4,2.036,3.717l0.136,7.898
	c0.023,1.317,0.885,1.724,1.916,0.905l6.186-4.912c1.031-0.819,2.905-1.174,4.165-0.788l7.553,2.311
	C288.859,539.578,289.513,538.884,289.053,537.651z M148.912,548.412l0.444-0.633c0.403-0.575,0.158-1.021-0.543-0.991l-4.207,0.18
	c-0.701,0.03-1.621-0.404-2.043-0.965l-2.533-3.364c-0.422-0.561-0.922-0.466-1.11,0.21l-1.129,4.057
	c-0.188,0.676-0.885,1.417-1.549,1.645l-3.982,1.37c-0.664,0.229-0.728,0.733-0.143,1.121l2.537,1.682l-48.967,23.808l-6.227,0.266
	l37.264-52.125c0.168,1.012,0.953,1.271,1.878,0.536l6.186-4.912c1.031-0.819,2.905-1.174,4.165-0.788l7.553,2.311
	c1.259,0.385,1.913-0.309,1.453-1.543l-2.76-7.401c-0.46-1.234-0.218-3.126,0.537-4.204l1.163-1.659l79.769-26.81
	c0.638,0.822,1.088,1.899,1.104,2.813l0.136,7.898c0.023,1.317,0.885,1.724,1.916,0.905l6.186-4.912
	c1.031-0.819,2.905-1.174,4.165-0.788l7.553,2.311c1.259,0.385,1.913-0.309,1.453-1.543l-2.197-5.893l17.551,6.954
	c-0.464,0.164-0.509,0.519-0.095,0.794l2.497,1.656c0.416,0.276,0.764,0.91,0.772,1.41l0.051,2.996
	c0.009,0.499,0.336,0.654,0.727,0.344l2.346-1.863c0.034-0.027,0.082-0.045,0.121-0.07l9.525,21.805l-0.813,2.921
	c-0.353,1.269-1.661,2.657-2.906,3.085l-7.469,2.57c-1.245,0.429-1.366,1.374-0.269,2.102l2.803,1.859L148.912,548.412z
	 M359.618,199.618l3.982-1.37c0.664-0.228,1.361-0.969,1.549-1.645l1.129-4.057c0.188-0.676,0.688-0.771,1.11-0.21l2.533,3.363
	c0.422,0.561,1.342,0.995,2.043,0.965l4.207-0.18c0.701-0.03,0.946,0.416,0.543,0.991l-2.416,3.449
	c-0.403,0.575-0.531,1.583-0.286,2.241l0.215,0.578l60.394,42.352c0.243-0.366,0.436-0.747,0.539-1.12l2.118-7.61
	c0.353-1.269,1.29-1.446,2.082-0.394l4.752,6.31c0.792,1.052,2.517,1.867,3.832,1.81l7.892-0.338
	c1.316-0.056,1.774,0.78,1.018,1.859l-4.532,6.469c-0.756,1.079-0.998,2.971-0.537,4.204l0.32,0.859l13.109,8.882l0.775-2.785
	c0.134-0.481,0.489-0.548,0.79-0.149l1.802,2.393c0.3,0.399,0.955,0.708,1.454,0.687l2.993-0.128
	c0.499-0.021,0.673,0.296,0.386,0.705l-1.719,2.454c-0.076,0.108-0.135,0.239-0.183,0.38l7.7,3.534
	c0.152-0.186,0.278-0.387,0.333-0.586l0.803-2.887c0.124-0.446,0.438-0.519,0.723-0.211l-0.287-2.306
	c-0.048,0.029-0.103,0.051-0.145,0.083l-2.346,1.863c-0.391,0.311-0.718,0.156-0.727-0.343l-0.051-2.996
	c-0.009-0.499-0.356-1.134-0.773-1.41l-2.497-1.656c-0.416-0.276-0.37-0.635,0.102-0.797l2.833-0.975
	c0.472-0.162,0.968-0.689,1.102-1.17l0.222-0.799l-3.009-7.152c-0.424-0.013-0.904,0.12-1.201,0.355l-2.346,1.863
	c-0.392,0.311-0.719,0.156-0.727-0.343l-0.051-2.996c-0.009-0.499-0.356-1.134-0.772-1.41l-2.497-1.656
	c-0.416-0.276-0.37-0.635,0.102-0.797l2.833-0.975c0.278-0.095,0.554-0.322,0.77-0.586l-57.99-74.581l-5.147-1.575
	c-1.259-0.385-3.133-0.031-4.165,0.788l-6.186,4.912c-1.031,0.819-1.894,0.412-1.916-0.905l-0.136-7.898
	c-0.022-1.317-0.939-2.989-2.036-3.717l-6.583-4.365c-1.097-0.728-0.977-1.674,0.269-2.102l7.469-2.57
	c1.245-0.428,2.553-1.817,2.906-3.085l2.118-7.61c0.353-1.269,1.29-1.446,2.082-0.394l4.752,6.31
	c0.792,1.052,2.517,1.866,3.832,1.81l7.892-0.338c1.316-0.056,1.774,0.78,1.018,1.859l-4.532,6.469
	c-0.756,1.078-0.997,2.971-0.537,4.204l2.76,7.401c0.233,0.625,0.178,1.11-0.095,1.388l55.224,71.023l0.138-0.494
	c0.134-0.481,0.49-0.548,0.79-0.149l1.803,2.393c0.301,0.399,0.955,0.708,1.454,0.687l2.993-0.128
	c0.499-0.021,0.673,0.296,0.386,0.705l-1.719,2.454c-0.287,0.409-0.378,1.127-0.204,1.595l1.047,2.807
	c0.174,0.468-0.073,0.731-0.551,0.585l-0.015-0.004l2.344,5.571l0.609,0.809c0.301,0.399,0.955,0.708,1.454,0.687l2.993-0.128
	c0.499-0.021,0.673,0.296,0.386,0.705l-1.719,2.454c-0.287,0.409-0.378,1.127-0.204,1.595l1.047,2.807
	c0.174,0.468-0.073,0.731-0.551,0.585l-1.645-0.503l0.655,5.257c0.102,0.018,0.205,0.036,0.299,0.032l2.993-0.128
	c0.499-0.021,0.673,0.296,0.386,0.705l-1.719,2.454c-0.286,0.409-0.378,1.127-0.204,1.595l0.56,1.501l20.618,20.985l1.043-3.749
	c0.188-0.676,0.688-0.771,1.11-0.21l2.533,3.363c0.422,0.561,1.342,0.995,2.043,0.965l4.207-0.18
	c0.701-0.03,0.946,0.416,0.543,0.991l-2.416,3.449c-0.331,0.472-0.463,1.228-0.369,1.851l37.057,20.62l0.706-2.536
	c0.134-0.481,0.489-0.549,0.79-0.149l1.802,2.393c0.301,0.399,0.955,0.708,1.454,0.687l2.993-0.128
	c0.499-0.021,0.673,0.296,0.386,0.705l-1.719,2.454c-0.287,0.409-0.378,1.127-0.204,1.595l0.123,0.331l4.049,6.154l0.344-1.236
	c0.134-0.481,0.489-0.549,0.79-0.149l1.803,2.393c0.301,0.399,0.955,0.708,1.454,0.687l2.993-0.128
	c0.499-0.021,0.673,0.296,0.386,0.705l-1.719,2.454c-0.286,0.409-0.378,1.127-0.204,1.595l1.047,2.807
	c0.175,0.468-0.073,0.731-0.551,0.585l-2.865-0.877c-0.478-0.146-1.189-0.012-1.58,0.299l-2.346,1.863
	c-0.391,0.311-0.718,0.156-0.727-0.343l-0.052-2.996c-0.008-0.499-0.356-1.134-0.772-1.41l-2.497-1.656
	c-0.416-0.276-0.37-0.635,0.102-0.797l2.833-0.975c0.072-0.025,0.142-0.072,0.214-0.111l-4.192-6.371l-1.002-0.306
	c-0.477-0.146-1.188-0.012-1.58,0.299l-2.346,1.863c-0.391,0.311-0.718,0.156-0.727-0.343l-0.051-2.996
	c-0.009-0.499-0.356-1.134-0.772-1.41l-2.497-1.656c-0.416-0.276-0.37-0.635,0.102-0.797l1.939-0.667l-33.634-18.714l0.224,0.602
	c0.245,0.658-0.103,1.028-0.774,0.822l-4.027-1.232c-0.671-0.205-1.67-0.016-2.22,0.42l-3.298,2.618
	c-0.55,0.437-1.009,0.219-1.021-0.483l-0.073-4.21c-0.012-0.702-0.5-1.594-1.085-1.982l-3.509-2.327
	c-0.585-0.388-0.521-0.892,0.143-1.121l3.897-1.341l-21.455-21.838l-0.372-0.114c-0.478-0.146-1.189-0.011-1.58,0.299l-2.347,1.863
	c-0.391,0.311-0.718,0.156-0.727-0.343l-0.051-2.996c-0.009-0.499-0.356-1.134-0.773-1.41l-2.497-1.656
	c-0.416-0.276-0.37-0.635,0.102-0.797l0.416-0.143l-3.791-1.74l0.303,0.812c0.175,0.468-0.073,0.731-0.551,0.585l-2.865-0.877
	c-0.478-0.146-1.189-0.012-1.58,0.299l-2.346,1.863c-0.391,0.311-0.718,0.156-0.727-0.343l-0.051-2.996
	c-0.009-0.499-0.356-1.134-0.772-1.41l-2.497-1.656c-0.416-0.276-0.37-0.635,0.102-0.797l1.736-0.597l-9.304-6.304l0.863,2.315
	c0.46,1.234-0.194,1.928-1.453,1.543l-7.553-2.311c-1.259-0.385-3.133-0.031-4.165,0.788l-6.186,4.912
	c-1.031,0.819-1.893,0.412-1.916-0.905l-0.136-7.898c-0.023-1.317-0.939-2.989-2.037-3.717l-6.583-4.365
	c-1.098-0.728-0.977-1.674,0.269-2.102l7.469-2.57c0.126-0.043,0.253-0.103,0.379-0.165l-57.176-40.095
	c-0.132,0.177-0.388,0.242-0.749,0.132l-4.027-1.232c-0.671-0.205-1.67-0.016-2.22,0.42l-3.298,2.618
	c-0.55,0.437-1.009,0.219-1.021-0.483l-0.073-4.21c-0.012-0.702-0.501-1.594-1.086-1.982l-3.509-2.327
	C358.89,200.35,358.955,199.846,359.618,199.618z M561.199,940.637l-4.207,0.18c-0.701,0.03-1.621-0.404-2.043-0.965l-2.533-3.363
	c-0.422-0.561-0.922-0.466-1.11,0.21l-1.129,4.057c-0.188,0.676-0.885,1.417-1.549,1.645l-3.982,1.37
	c-0.664,0.229-0.728,0.733-0.143,1.121l3.509,2.327c0.585,0.388,1.074,1.28,1.086,1.982l0.073,4.21
	c0.001,0.049,0.019,0.077,0.025,0.122l-2.14,7.312c-0.57-0.313-1.078-0.711-1.414-1.157l-4.752-6.31
	c-0.793-1.052-1.73-0.874-2.082,0.394l-2.118,7.61c-0.353,1.269-1.661,2.657-2.906,3.085l-7.469,2.57
	c-1.245,0.428-1.366,1.374-0.269,2.102l3.284,2.178l-91.828,19.167c0.136-0.324-0.032-0.561-0.46-0.543l-2.993,0.128
	c-0.499,0.021-1.153-0.287-1.454-0.687l-1.802-2.393c-0.301-0.399-0.656-0.332-0.79,0.149l-0.803,2.887
	c-0.134,0.481-0.63,1.008-1.102,1.17l-0.275,0.094l-29.059-4.425l0.629-0.898c0.286-0.409,0.113-0.727-0.386-0.705l-2.993,0.128
	c-0.499,0.021-1.153-0.288-1.454-0.687l-1.803-2.393c-0.301-0.399-0.656-0.332-0.79,0.149l-0.803,2.887
	c-0.059,0.213-0.196,0.43-0.363,0.626l-26.381-0.652l1.657-2.365c0.403-0.575,0.158-1.021-0.543-0.991l-4.207,0.18
	c-0.701,0.03-1.621-0.404-2.043-0.965l-2.533-3.364c-0.422-0.561-0.922-0.466-1.11,0.21l-1.129,4.057
	c-0.188,0.676-0.886,1.417-1.549,1.645l-1.854,0.638l-8.163-0.999c0.13-0.518,0.329-1.002,0.596-1.383l4.532-6.47
	c0.756-1.078,0.297-1.915-1.018-1.859l-7.892,0.338c-1.316,0.056-3.04-0.758-3.833-1.81l-4.752-6.31
	c-0.792-1.052-1.729-0.875-2.082,0.394l-2.117,7.61c-0.353,1.269-1.661,2.657-2.906,3.085l-7.469,2.57
	c-1.245,0.428-1.366,1.374-0.268,2.102l6.583,4.365c1.098,0.728,2.014,2.401,2.037,3.717l0.136,7.898
	c0.023,1.317,0.885,1.724,1.916,0.905l6.186-4.912c1.031-0.819,2.905-1.174,4.165-0.788l3.914,1.198l38.931,47.806l-2.726,0.938
	c-0.473,0.162-0.518,0.521-0.102,0.797l2.497,1.656c0.416,0.276,0.764,0.91,0.772,1.41l0.051,2.996
	c0.009,0.5,0.336,0.654,0.727,0.343l2.347-1.863c0.392-0.311,1.102-0.445,1.58-0.299l2.865,0.877c0.392,0.12,0.614-0.044,0.59-0.362
	l72.867,41.873l-1.039,0.357c-0.472,0.163-0.518,0.521-0.102,0.797l2.497,1.656c0.416,0.276,0.764,0.911,0.772,1.41l0.051,2.996
	c0.009,0.499,0.336,0.654,0.727,0.343l2.346-1.863c0.391-0.311,1.102-0.445,1.579-0.299l2.865,0.877
	c0.478,0.146,0.726-0.117,0.551-0.585l-1.047-2.807c-0.175-0.468-0.083-1.186,0.204-1.595l1.719-2.454
	c0.286-0.409,0.113-0.726-0.386-0.705l-2.649,0.113l5.655-10.346l2.196-1.744c0.391-0.311,1.102-0.445,1.579-0.299l2.865,0.877
	c0.478,0.146,0.726-0.117,0.551-0.585l-1.047-2.807c-0.175-0.468-0.083-1.186,0.204-1.595l1.719-2.454
	c0.287-0.409,0.113-0.727-0.386-0.705l-2.217,0.095l54.663-83.008c0.284,0.691,0.977,0.8,1.776,0.165l6.186-4.912
	c1.031-0.819,2.905-1.174,4.164-0.788l7.553,2.311c1.259,0.385,1.913-0.309,1.453-1.543l-2.76-7.401
	c-0.46-1.234-0.218-3.126,0.537-4.204l4.532-6.469c0.756-1.079,0.297-1.915-1.018-1.859l-7.773,0.332l2.716-9.279l1.182-0.939
	c0.55-0.437,1.549-0.626,2.22-0.42l4.027,1.232c0.671,0.205,1.02-0.164,0.774-0.822l-1.471-3.945
	c-0.245-0.657-0.116-1.666,0.286-2.241l2.416-3.449C562.145,941.053,561.9,940.607,561.199,940.637z M532.628,973.504
	c1.098,0.728,2.014,2.401,2.037,3.717l0.072,4.193l-56.938,86.47l-1.554-2.064c-0.3-0.399-0.656-0.332-0.79,0.15l-0.803,2.886
	c-0.134,0.481-0.63,1.008-1.102,1.17l-2.833,0.975c-0.473,0.162-0.518,0.521-0.102,0.797l2.497,1.656
	c0.31,0.206,0.581,0.61,0.704,1.01l-6.927,12.667l-1.331-1.767c-0.3-0.399-0.656-0.332-0.79,0.149l-0.803,2.886
	c-0.032,0.115-0.087,0.232-0.155,0.347l-76.77-44.116c0.017-0.345,0.108-0.697,0.279-0.941l1.719-2.454
	c0.287-0.409,0.113-0.726-0.386-0.705l-2.993,0.128c-0.499,0.021-1.153-0.288-1.454-0.687l-1.802-2.393
	c-0.301-0.399-0.656-0.332-0.79,0.149l-0.503,1.807l-36.083-44.309c0.765-0.043,1.096-0.67,0.735-1.638l-2.76-7.401
	c-0.022-0.058-0.034-0.125-0.053-0.186l6.814,0.832l2.583,1.713c0.585,0.388,1.074,1.28,1.086,1.982l0.072,4.21
	c0.012,0.702,0.472,0.919,1.021,0.483l3.298-2.619c0.55-0.437,1.549-0.626,2.22-0.42l4.026,1.232
	c0.671,0.205,1.02-0.165,0.775-0.823l-1.471-3.945c-0.081-0.218-0.108-0.476-0.11-0.742l24.189,0.602l2.172,1.44
	c0.416,0.276,0.764,0.91,0.772,1.41l0.052,2.996c0.009,0.499,0.336,0.654,0.727,0.343l2.346-1.863
	c0.391-0.311,1.102-0.445,1.579-0.299l2.865,0.877c0.478,0.146,0.726-0.117,0.551-0.585l-1.047-2.807
	c-0.077-0.205-0.094-0.459-0.074-0.713l28.869,4.396l1.394,0.924c0.416,0.276,0.764,0.91,0.772,1.41l0.051,2.996
	c0.009,0.499,0.336,0.654,0.727,0.343l2.347-1.863c0.391-0.311,1.102-0.445,1.58-0.299l2.865,0.877
	c0.478,0.146,0.726-0.117,0.551-0.585l-1.047-2.807c-0.118-0.318-0.106-0.748-0.001-1.121l96.891-20.224L532.628,973.504z
	 M707.645,741.6l-3.55,10.362l2.601,10.64l-10.362-3.551l-10.64,2.601l3.551-10.362l-2.601-10.64l10.362,3.551L707.645,741.6z
	 M556.324,473.467l-3.551,10.362l2.601,10.64l-10.362-3.551l-10.64,2.601l3.55-10.362l-2.601-10.64l10.362,3.551L556.324,473.467z
	 M1008.484,940.776l-3.55,10.362l2.6,10.64l-10.361-3.551l-10.64,2.601l3.551-10.362l-2.601-10.64l10.362,3.551L1008.484,940.776z
	 M887.464,441.83l10.64-2.601l-3.551,10.362l2.601,10.64l-10.362-3.551l-10.64,2.601l3.55-10.362l-2.6-10.64L887.464,441.83z
	 M369.68,456.681l-10.64,2.601l3.55-10.362l-2.601-10.64l10.362,3.551l10.64-2.601l-3.551,10.362l2.601,10.64L369.68,456.681z
	 M88.961,253.963l3.551-10.362l-2.601-10.64l10.362,3.551l10.64-2.601l-3.55,10.362l2.6,10.64l-10.362-3.551L88.961,253.963z
	 M217.037,1025.182l-3.551,10.362l2.601,10.64l-10.362-3.551l-10.64,2.601l3.55-10.362l-2.6-10.64l10.362,3.551L217.037,1025.182z
	 M317.731,765.085l-10.64,2.6l3.551-10.362l-2.601-10.64l10.362,3.551l10.64-2.601l-3.55,10.362l2.601,10.64L317.731,765.085z
	 M434.742,908.171l-3.551,10.362l2.601,10.64l-10.362-3.551l-10.64,2.601l3.551-10.362l-2.601-10.64l10.362,3.55L434.742,908.171z
	 M806.446,1102.816l-3.551,10.362l2.601,10.64l-10.362-3.551l-10.64,2.601l3.551-10.362l-2.601-10.64l10.362,3.55L806.446,1102.816z
	 M530.484,135.811l3.55-10.362l-2.601-10.64l10.362,3.551l10.64-2.601l-3.551,10.362l2.601,10.64l-10.362-3.551L530.484,135.811z
	 M854.201,213.118l3.55-10.362l-2.601-10.64l10.362,3.551l10.64-2.601l-3.55,10.362l2.601,10.64l-10.362-3.551L854.201,213.118z
	 M887.128,115.634l3.551-10.362l-2.601-10.64l10.362,3.551l10.64-2.601l-3.55,10.362l2.601,10.64l-10.362-3.551L887.128,115.634z
	 M1076.43,165.222l10.362,3.551l10.64-2.601l-3.55,10.362l2.601,10.64l-10.362-3.551l-10.64,2.601l3.55-10.362L1076.43,165.222z
	 M305.032,275.271l3.55-10.362l-2.6-10.64l10.362,3.551l10.64-2.601l-3.551,10.362l2.601,10.64l-10.362-3.551L305.032,275.271z
	 M660.587,276.892l-10.64,2.601l3.551-10.362l-2.601-10.64l10.362,3.551l10.64-2.601l-3.551,10.362l2.601,10.64L660.587,276.892z
	 M180.852,637.276l3.55-10.362l-2.601-10.64l10.362,3.55l10.64-2.6l-3.55,10.362l2.601,10.64l-10.362-3.551L180.852,637.276z
	 M632.971,469.96l-1.743,5.087l1.277,5.223l-5.087-1.743l-5.223,1.277l1.743-5.087l-1.277-5.223l5.086,1.743L632.971,469.96z
	 M409.107,329.76l1.743-5.087l-1.277-5.223l5.087,1.743l5.223-1.277l-1.743,5.087l1.277,5.223l-5.087-1.743L409.107,329.76z
	 M738.352,562.087l1.743-5.087l-1.277-5.223l5.087,1.743l5.223-1.277l-1.743,5.087l1.277,5.223l-5.087-1.743L738.352,562.087z
	 M458.123,847.868l1.743-5.087l-1.277-5.223l5.087,1.743l5.223-1.277l-1.743,5.087l1.277,5.223l-5.086-1.743L458.123,847.868z
	 M827.666,898.729l-1.743,5.086l1.277,5.223l-5.087-1.743l-5.223,1.276l1.743-5.086l-1.277-5.223l5.086,1.743L827.666,898.729z
	 M873.319,647.747l-1.743,5.087l1.277,5.223l-5.087-1.743l-5.223,1.277l1.743-5.087l-1.277-5.223l5.086,1.743L873.319,647.747z
	 M162.394,751.605l1.743-5.087l-1.277-5.223l5.087,1.743l5.223-1.277l-1.743,5.087l1.277,5.223l-5.087-1.743L162.394,751.605z
	 M549.491,1073.442l-1.743,5.087l1.277,5.223l-5.087-1.743l-5.223,1.277l1.743-5.087l-1.277-5.223l5.087,1.743L549.491,1073.442z
	 M371.656,1118.896l-1.743,5.087l1.277,5.224l-5.087-1.743l-5.223,1.277l1.743-5.087l-1.277-5.223l5.086,1.743L371.656,1118.896z
	 M293.772,1091.755l-1.743,5.087l1.277,5.223l-5.087-1.743l-5.223,1.277l1.743-5.087l-1.277-5.223l5.087,1.743L293.772,1091.755z
	 M216.838,516.539l-1.743,5.087l1.277,5.223l-5.087-1.743l-5.223,1.277l1.743-5.087l-1.277-5.223l5.086,1.743L216.838,516.539z
	 M450.857,675.486l-1.743,5.086l1.277,5.223l-5.086-1.743l-5.223,1.277l1.743-5.086l-1.277-5.223l5.087,1.743L450.857,675.486z
	 M197.216,280.581l-1.743,5.087l1.277,5.223l-5.086-1.743l-5.223,1.277l1.743-5.087l-1.276-5.223l5.086,1.743L197.216,280.581z
	 M247.937,95.502l1.743-5.087l-1.277-5.223l5.087,1.743l5.223-1.277l-1.743,5.087l1.277,5.223l-5.087-1.743L247.937,95.502z
	 M227.614,372.338l-1.743,5.087l1.276,5.223l-5.086-1.743l-5.223,1.277l1.743-5.087l-1.277-5.223l5.086,1.743L227.614,372.338z
	 M598.792,238.03l1.743-5.087l-1.277-5.223l5.087,1.743l5.223-1.277l-1.743,5.087l1.277,5.223l-5.087-1.743L598.792,238.03z
	 M438.336,60.535l1.743-5.087l-1.277-5.223l5.087,1.743l5.223-1.277l-1.743,5.087l1.277,5.223l-5.087-1.743L438.336,60.535z
	 M678.012,366.811l-1.743,5.087l1.277,5.223l-5.087-1.743l-5.223,1.277l1.743-5.087l-1.276-5.223l5.087,1.743L678.012,366.811z
	 M875.953,330.892l-1.743,5.087l1.277,5.223l-5.087-1.743l-5.223,1.277l1.743-5.087l-1.277-5.223l5.086,1.743L875.953,330.892z
	 M977.765,65.923l1.743-5.087l-1.277-5.223l5.087,1.743l5.223-1.277l-1.743,5.087l1.277,5.223l-5.087-1.743L977.765,65.923z
	 M104.348,1102.532l-1.743,5.087l1.277,5.223l-5.087-1.743l-5.223,1.277l1.743-5.087l-1.277-5.223l5.086,1.743L104.348,1102.532z
	 M1139.097,294.349l-1.743,5.087l1.277,5.223l-5.087-1.743l-5.224,1.277l1.743-5.087l-1.276-5.223l5.086,1.743L1139.097,294.349z
	 M1125.649,105.142l1.743-5.087l-1.277-5.223l5.087,1.743l5.223-1.277l-1.743,5.087l1.277,5.223l-5.087-1.743L1125.649,105.142z
	 M930.578,525.83l-1.743,5.087l1.277,5.223l-5.087-1.743l-5.223,1.277l1.743-5.087l-1.277-5.223l5.087,1.743L930.578,525.83z
	 M1144.396,617.049l1.276,5.223l-5.086-1.743l-5.223,1.277l1.743-5.086l-1.277-5.223l5.087,1.743l5.224-1.276L1144.396,617.049z
	 M1134.175,414.244l5.086,1.743l5.224-1.277l-1.743,5.087l1.277,5.223l-5.087-1.743l-5.223,1.277l1.743-5.087L1134.175,414.244z
	 M1115.622,1024.898l-1.743,5.087l1.276,5.223l-5.086-1.743l-5.223,1.277l1.743-5.087l-1.277-5.223l5.086,1.743L1115.622,1024.898z
	 M1103.174,1124.284l-1.743,5.087l1.277,5.223l-5.087-1.743l-5.223,1.277l1.743-5.087l-1.277-5.223l5.087,1.743L1103.174,1124.284z
	 M935.283,1102.585l-1.743,5.087l1.277,5.223l-5.086-1.743l-5.224,1.277l1.743-5.087l-1.277-5.223l5.087,1.743L935.283,1102.585z
	 M705.397,828.208l-1.743,5.087l1.277,5.223l-5.086-1.743l-5.223,1.277l1.743-5.087l-1.277-5.223l5.087,1.743L705.397,828.208z
	 M682.993,1067.132l-1.743,5.087l1.277,5.223l-5.087-1.743l-5.223,1.277l1.743-5.087l-1.277-5.223l5.087,1.743L682.993,1067.132z
	 M425.271,600.793l-1.743,5.087l1.277,5.223l-5.087-1.743l-5.223,1.277l1.743-5.087l-1.277-5.223l5.087,1.743L425.271,600.793z
	 M1019.643,736.658l-3.551,10.362l2.601,10.64l-10.362-3.551l-10.64,2.601l3.55-10.362l-2.6-10.64l10.361,3.55L1019.643,736.658z
	 M478.734,414.2c-0.403,0.575-0.531,1.584-0.286,2.241l1.471,3.945c0.245,0.658-0.103,1.028-0.774,0.822l-4.027-1.232
	c-0.671-0.205-1.67-0.016-2.22,0.42l-3.298,2.618c-0.55,0.437-1.009,0.219-1.022-0.482l-0.072-4.21
	c-0.012-0.702-0.501-1.594-1.086-1.982l-3.509-2.327c-0.585-0.388-0.521-0.892,0.143-1.121l3.982-1.37
	c0.664-0.228,1.361-0.969,1.549-1.645l1.129-4.057c0.188-0.676,0.688-0.771,1.11-0.21l2.533,3.363
	c0.422,0.561,1.342,0.995,2.043,0.965l4.207-0.18c0.701-0.03,0.946,0.416,0.543,0.991L478.734,414.2z M113.976,405.661
	c-0.403,0.575-0.532,1.583-0.286,2.241l1.472,3.945c0.245,0.658-0.103,1.028-0.775,0.822l-4.026-1.232
	c-0.671-0.205-1.67-0.016-2.22,0.42l-3.298,2.618c-0.55,0.437-1.009,0.219-1.022-0.483l-0.072-4.21
	c-0.012-0.702-0.501-1.594-1.086-1.982l-3.509-2.327c-0.585-0.388-0.521-0.892,0.143-1.121l3.982-1.37
	c0.664-0.228,1.361-0.969,1.549-1.645l1.129-4.057c0.188-0.676,0.688-0.771,1.11-0.21l2.533,3.363
	c0.422,0.561,1.342,0.995,2.043,0.965l4.207-0.18c0.701-0.03,0.946,0.416,0.543,0.991L113.976,405.661z M328.452,88.643l3.982-1.37
	c0.664-0.228,1.361-0.969,1.549-1.645l1.129-4.057c0.188-0.676,0.688-0.771,1.11-0.21l2.533,3.364
	c0.422,0.561,1.342,0.995,2.043,0.965l4.207-0.18c0.701-0.03,0.946,0.416,0.543,0.991l-2.416,3.449
	c-0.403,0.575-0.532,1.584-0.286,2.241l1.471,3.945c0.245,0.658-0.103,1.028-0.774,0.823l-4.027-1.232
	c-0.671-0.205-1.67-0.016-2.22,0.42l-3.298,2.619c-0.55,0.437-1.009,0.219-1.021-0.483l-0.073-4.21
	c-0.012-0.702-0.5-1.594-1.085-1.982l-3.509-2.327C327.724,89.376,327.789,88.872,328.452,88.643z M345.138,363.24l2.533,3.364
	c0.422,0.561,1.342,0.995,2.043,0.965l4.207-0.18c0.702-0.03,0.946,0.416,0.543,0.991l-2.416,3.449
	c-0.403,0.575-0.532,1.584-0.286,2.241l1.471,3.945c0.245,0.658-0.103,1.028-0.775,0.823l-4.026-1.232
	c-0.671-0.206-1.67-0.016-2.22,0.42l-3.298,2.619c-0.55,0.437-1.01,0.219-1.022-0.483l-0.072-4.21
	c-0.012-0.702-0.501-1.594-1.086-1.982l-3.509-2.327c-0.585-0.388-0.521-0.892,0.143-1.121l3.982-1.37
	c0.664-0.228,1.361-0.969,1.549-1.645l1.129-4.057C344.216,362.774,344.716,362.679,345.138,363.24z M795.021,709.754
	c-0.403,0.575-0.532,1.583-0.286,2.241l1.471,3.945c0.245,0.658-0.103,1.028-0.774,0.822l-4.027-1.232
	c-0.671-0.205-1.67-0.016-2.22,0.42l-3.298,2.618c-0.55,0.437-1.009,0.219-1.021-0.482l-0.073-4.21
	c-0.012-0.702-0.5-1.594-1.085-1.981l-3.509-2.327c-0.585-0.388-0.521-0.892,0.143-1.121l3.982-1.37
	c0.664-0.229,1.361-0.969,1.549-1.645l1.129-4.057c0.188-0.676,0.688-0.771,1.11-0.21l2.533,3.363
	c0.422,0.561,1.342,0.995,2.043,0.965l4.207-0.18c0.701-0.03,0.946,0.416,0.543,0.991L795.021,709.754z M80.66,166.049
	c-0.403,0.575-0.532,1.583-0.286,2.241l1.472,3.945c0.245,0.658-0.103,1.028-0.775,0.822l-4.026-1.232
	c-0.671-0.205-1.67-0.016-2.22,0.42l-3.298,2.618c-0.55,0.437-1.009,0.219-1.022-0.482l-0.072-4.21
	c-0.012-0.702-0.501-1.594-1.086-1.982l-3.509-2.327c-0.585-0.388-0.521-0.892,0.143-1.121l3.982-1.37
	c0.664-0.228,1.361-0.969,1.549-1.645l1.129-4.057c0.188-0.676,0.688-0.771,1.11-0.21l2.533,3.363
	c0.422,0.561,1.342,0.995,2.043,0.965l4.207-0.18c0.701-0.03,0.946,0.416,0.543,0.991L80.66,166.049z M338.015,883.774
	c-0.403,0.575-0.532,1.584-0.286,2.241l1.472,3.945c0.245,0.658-0.103,1.028-0.775,0.822l-4.026-1.232
	c-0.671-0.205-1.67-0.016-2.22,0.42l-3.298,2.619c-0.55,0.436-1.01,0.219-1.022-0.483l-0.072-4.21
	c-0.012-0.702-0.501-1.594-1.086-1.982l-3.509-2.327c-0.585-0.388-0.521-0.892,0.143-1.121l3.982-1.37
	c0.664-0.228,1.361-0.969,1.549-1.645l1.129-4.057c0.188-0.676,0.688-0.771,1.11-0.21l2.533,3.363
	c0.422,0.561,1.342,0.995,2.043,0.965l4.207-0.18c0.701-0.03,0.946,0.416,0.543,0.991L338.015,883.774z M482.981,551.228
	c-0.403,0.575-0.532,1.584-0.286,2.241l1.471,3.945c0.245,0.658-0.103,1.028-0.774,0.822l-4.027-1.232
	c-0.671-0.205-1.67-0.016-2.22,0.42l-3.298,2.618c-0.55,0.437-1.009,0.22-1.022-0.482l-0.072-4.21
	c-0.012-0.702-0.5-1.594-1.085-1.982l-3.51-2.327c-0.585-0.388-0.521-0.892,0.143-1.121l3.982-1.37
	c0.664-0.228,1.361-0.969,1.549-1.645l1.129-4.057c0.188-0.676,0.688-0.771,1.11-0.21l2.533,3.364
	c0.422,0.56,1.342,0.995,2.043,0.965l4.207-0.18c0.702-0.03,0.946,0.416,0.543,0.991L482.981,551.228z M648.005,669.784
	c-0.403,0.575-0.532,1.584-0.286,2.241l1.471,3.945c0.245,0.658-0.103,1.028-0.774,0.822l-4.027-1.232
	c-0.671-0.205-1.67-0.016-2.22,0.42l-3.297,2.618c-0.55,0.437-1.009,0.22-1.022-0.482l-0.072-4.21
	c-0.012-0.702-0.501-1.594-1.086-1.982l-3.509-2.327c-0.585-0.388-0.521-0.892,0.143-1.121l3.982-1.37
	c0.664-0.228,1.361-0.969,1.549-1.645l1.129-4.057c0.188-0.676,0.688-0.771,1.11-0.21l2.533,3.364
	c0.422,0.56,1.342,0.995,2.043,0.965l4.207-0.18c0.701-0.03,0.946,0.416,0.543,0.991L648.005,669.784z M99.878,630.348
	c-0.403,0.575-0.532,1.584-0.286,2.241l1.471,3.945c0.245,0.658-0.103,1.028-0.774,0.822l-4.027-1.232
	c-0.671-0.205-1.67-0.016-2.22,0.42l-3.298,2.618c-0.55,0.437-1.009,0.22-1.022-0.482l-0.072-4.21
	c-0.012-0.702-0.5-1.594-1.085-1.982l-3.51-2.327c-0.585-0.388-0.521-0.892,0.143-1.121l3.982-1.37
	c0.664-0.228,1.361-0.969,1.549-1.645l1.129-4.057c0.188-0.676,0.688-0.771,1.11-0.21l2.533,3.364
	c0.422,0.56,1.342,0.995,2.043,0.965l4.207-0.18c0.702-0.03,0.946,0.416,0.543,0.991L99.878,630.348z M811.208,807.87
	c-0.403,0.575-0.532,1.584-0.286,2.241l1.471,3.945c0.245,0.658-0.103,1.028-0.774,0.822l-4.027-1.232
	c-0.671-0.205-1.67-0.016-2.22,0.42l-3.297,2.618c-0.55,0.437-1.009,0.219-1.022-0.482l-0.073-4.21
	c-0.012-0.702-0.5-1.594-1.085-1.982l-3.509-2.327c-0.585-0.388-0.521-0.892,0.143-1.121l3.982-1.37
	c0.664-0.228,1.361-0.968,1.549-1.645l1.129-4.057c0.188-0.676,0.688-0.771,1.11-0.21l2.533,3.363
	c0.422,0.561,1.342,0.995,2.043,0.965l4.207-0.18c0.701-0.03,0.946,0.416,0.543,0.991L811.208,807.87z M1021.832,522.5
	c-0.403,0.575-0.532,1.583-0.287,2.241l1.471,3.945c0.245,0.658-0.103,1.028-0.775,0.823l-4.026-1.232
	c-0.671-0.206-1.67-0.017-2.22,0.42l-3.298,2.619c-0.55,0.437-1.01,0.219-1.022-0.483l-0.072-4.21
	c-0.012-0.702-0.501-1.594-1.086-1.982l-3.509-2.327c-0.585-0.388-0.521-0.892,0.143-1.121l3.982-1.37
	c0.664-0.228,1.361-0.969,1.549-1.645l1.129-4.057c0.188-0.676,0.687-0.771,1.11-0.21l2.533,3.364
	c0.422,0.561,1.342,0.995,2.043,0.965l4.207-0.18c0.701-0.03,0.945,0.416,0.543,0.991L1021.832,522.5z M936.653,798.632l3.982-1.37
	c0.664-0.228,1.36-0.968,1.549-1.645l1.129-4.057c0.188-0.676,0.688-0.771,1.11-0.21l2.534,3.363
	c0.422,0.561,1.341,0.995,2.042,0.965l4.207-0.18c0.702-0.03,0.946,0.416,0.543,0.991l-2.416,3.449
	c-0.402,0.575-0.531,1.583-0.286,2.241l1.472,3.945c0.245,0.658-0.103,1.028-0.775,0.822l-4.026-1.232
	c-0.671-0.205-1.67-0.016-2.22,0.42l-3.297,2.618c-0.55,0.437-1.01,0.219-1.022-0.483l-0.072-4.21
	c-0.012-0.702-0.501-1.594-1.086-1.982l-3.51-2.327C935.925,799.364,935.989,798.86,936.653,798.632z M1094.935,673.244
	c-0.403,0.575-0.532,1.584-0.287,2.241l1.471,3.945c0.245,0.658-0.103,1.028-0.775,0.822l-4.026-1.232
	c-0.671-0.205-1.671-0.016-2.22,0.42l-3.298,2.619c-0.549,0.437-1.009,0.219-1.021-0.482l-0.072-4.21
	c-0.012-0.702-0.501-1.594-1.086-1.982l-3.51-2.327c-0.585-0.388-0.521-0.892,0.144-1.121l3.982-1.37
	c0.664-0.228,1.36-0.969,1.549-1.645l1.129-4.057c0.188-0.676,0.688-0.771,1.11-0.21l2.534,3.364
	c0.422,0.561,1.341,0.995,2.043,0.965l4.206-0.18c0.701-0.03,0.946,0.416,0.543,0.991L1094.935,673.244z M1041.79,396.664
	c-0.403,0.575-0.531,1.584-0.286,2.241l1.471,3.945c0.245,0.658-0.103,1.028-0.775,0.822l-4.026-1.232
	c-0.671-0.205-1.67-0.016-2.22,0.42l-3.297,2.618c-0.55,0.437-1.009,0.219-1.021-0.482l-0.073-4.21
	c-0.012-0.702-0.501-1.594-1.086-1.982l-3.509-2.327c-0.585-0.388-0.521-0.892,0.143-1.121l3.981-1.37
	c0.664-0.228,1.361-0.969,1.549-1.645l1.129-4.057c0.188-0.676,0.688-0.771,1.11-0.21l2.533,3.363
	c0.422,0.561,1.342,0.995,2.043,0.965l4.207-0.18c0.701-0.03,0.946,0.416,0.543,0.991L1041.79,396.664z M919.927,234.598l3.982-1.37
	c0.664-0.228,1.36-0.969,1.549-1.645l1.129-4.057c0.188-0.676,0.688-0.771,1.11-0.21l2.534,3.364
	c0.422,0.561,1.342,0.995,2.043,0.965l4.206-0.18c0.702-0.03,0.946,0.416,0.543,0.991l-2.416,3.449
	c-0.403,0.575-0.532,1.584-0.287,2.241l1.471,3.945c0.245,0.658-0.103,1.028-0.775,0.823l-4.026-1.232
	c-0.671-0.206-1.67-0.016-2.22,0.42l-3.298,2.619c-0.55,0.437-1.01,0.219-1.022-0.483l-0.072-4.21
	c-0.012-0.702-0.501-1.594-1.086-1.982l-3.51-2.327C919.198,235.33,919.263,234.826,919.927,234.598z M788.787,344.001
	c-0.403,0.575-0.532,1.583-0.286,2.241l1.471,3.945c0.245,0.658-0.103,1.028-0.774,0.822l-4.027-1.232
	c-0.671-0.205-1.67-0.016-2.22,0.42l-3.298,2.618c-0.55,0.437-1.009,0.219-1.021-0.483l-0.073-4.21
	c-0.012-0.702-0.5-1.594-1.085-1.982l-3.509-2.327c-0.585-0.388-0.521-0.892,0.143-1.121l3.982-1.37
	c0.664-0.228,1.361-0.969,1.549-1.645l1.129-4.057c0.188-0.676,0.688-0.771,1.11-0.21l2.533,3.363
	c0.422,0.561,1.342,0.995,2.043,0.965l4.207-0.18c0.701-0.03,0.946,0.416,0.543,0.991L788.787,344.001z M774.139,71.475l3.982-1.37
	c0.664-0.228,1.361-0.969,1.549-1.645l1.129-4.057c0.188-0.676,0.688-0.771,1.11-0.21l2.533,3.363
	c0.422,0.561,1.342,0.995,2.043,0.965l4.207-0.18c0.702-0.03,0.946,0.416,0.543,0.991l-2.416,3.449
	c-0.403,0.575-0.532,1.583-0.287,2.241l1.471,3.945c0.245,0.658-0.103,1.028-0.775,0.822l-4.026-1.232
	c-0.671-0.205-1.67-0.016-2.22,0.42l-3.297,2.618c-0.55,0.437-1.01,0.219-1.022-0.483l-0.072-4.21
	c-0.012-0.702-0.501-1.594-1.086-1.982l-3.509-2.327C773.411,72.207,773.475,71.703,774.139,71.475z M1059.605,74.037l3.982-1.37
	c0.664-0.228,1.361-0.969,1.549-1.645l1.129-4.057c0.188-0.676,0.688-0.771,1.11-0.21l2.533,3.364
	c0.423,0.561,1.342,0.995,2.043,0.965l4.207-0.18c0.701-0.03,0.946,0.416,0.543,0.991l-2.416,3.449
	c-0.403,0.575-0.531,1.584-0.286,2.241l1.471,3.945c0.245,0.658-0.103,1.028-0.774,0.823l-4.027-1.232
	c-0.671-0.205-1.67-0.016-2.22,0.42l-3.297,2.619c-0.549,0.437-1.009,0.219-1.021-0.483l-0.073-4.21
	c-0.012-0.702-0.5-1.594-1.085-1.982l-3.51-2.327C1058.877,74.77,1058.941,74.266,1059.605,74.037z M1131.099,735.664
	c-0.403,0.575-0.532,1.584-0.286,2.241l1.471,3.945c0.245,0.658-0.103,1.028-0.774,0.823l-4.027-1.232
	c-0.671-0.205-1.67-0.016-2.22,0.42l-3.297,2.618c-0.55,0.437-1.009,0.22-1.021-0.482l-0.073-4.21
	c-0.012-0.702-0.501-1.594-1.086-1.982l-3.509-2.327c-0.585-0.388-0.521-0.892,0.143-1.121l3.981-1.37
	c0.664-0.228,1.361-0.969,1.549-1.645l1.129-4.057c0.188-0.676,0.688-0.771,1.11-0.21l2.533,3.364
	c0.423,0.56,1.342,0.995,2.043,0.965l4.207-0.18c0.701-0.03,0.945,0.416,0.543,0.991L1131.099,735.664z M1050.707,842.903
	c-0.403,0.575-0.532,1.584-0.287,2.241l1.471,3.945c0.245,0.658-0.103,1.028-0.775,0.822l-4.026-1.232
	c-0.671-0.205-1.67-0.016-2.22,0.42l-3.297,2.618c-0.55,0.437-1.01,0.22-1.022-0.482l-0.072-4.21
	c-0.012-0.702-0.501-1.594-1.086-1.982l-3.51-2.327c-0.585-0.388-0.521-0.892,0.144-1.121l3.981-1.37
	c0.664-0.228,1.361-0.969,1.549-1.645l1.129-4.057c0.188-0.676,0.687-0.771,1.11-0.21l2.533,3.364
	c0.422,0.56,1.342,0.995,2.043,0.965l4.207-0.18c0.701-0.03,0.945,0.416,0.543,0.991L1050.707,842.903z M788.329,1034.438
	l-4.026-1.232c-0.671-0.205-1.67-0.016-2.22,0.42l-3.297,2.618c-0.55,0.437-1.01,0.219-1.022-0.483l-0.072-4.21
	c-0.012-0.702-0.501-1.594-1.086-1.981l-3.509-2.327c-0.585-0.388-0.521-0.892,0.143-1.121l3.982-1.37
	c0.664-0.229,1.361-0.969,1.549-1.645l1.129-4.057c0.188-0.676,0.688-0.771,1.11-0.21l2.533,3.363
	c0.422,0.561,1.342,0.995,2.043,0.965l4.207-0.18c0.702-0.03,0.946,0.416,0.543,0.991l-2.416,3.449
	c-0.403,0.575-0.532,1.583-0.286,2.241l1.471,3.945C789.349,1034.273,789,1034.643,788.329,1034.438z M600.026,1109.349
	l-2.416,3.449c-0.403,0.575-0.532,1.583-0.286,2.241l1.471,3.945c0.245,0.658-0.103,1.028-0.774,0.823l-4.027-1.232
	c-0.671-0.206-1.67-0.017-2.22,0.42l-3.298,2.618c-0.55,0.437-1.009,0.219-1.022-0.483l-0.073-4.21
	c-0.012-0.702-0.5-1.594-1.085-1.982l-3.51-2.327c-0.585-0.388-0.521-0.892,0.143-1.12l3.982-1.37
	c0.664-0.228,1.361-0.969,1.549-1.645l1.129-4.057c0.188-0.676,0.688-0.771,1.11-0.21l2.533,3.364
	c0.422,0.561,1.342,0.995,2.043,0.965l4.207-0.18C600.185,1108.329,600.429,1108.775,600.026,1109.349z M542.737,910.009
	c-0.403,0.575-0.531,1.584-0.286,2.241l1.471,3.945c0.245,0.658-0.103,1.028-0.775,0.823l-4.026-1.232
	c-0.671-0.206-1.67-0.017-2.22,0.42l-3.298,2.619c-0.55,0.437-1.009,0.219-1.021-0.483l-0.073-4.21
	c-0.012-0.702-0.501-1.594-1.086-1.982l-3.509-2.327c-0.585-0.388-0.521-0.892,0.143-1.121l3.982-1.37
	c0.664-0.228,1.361-0.969,1.549-1.645l1.129-4.057c0.188-0.676,0.688-0.771,1.11-0.21l2.533,3.364
	c0.422,0.561,1.342,0.995,2.043,0.965l4.207-0.18c0.701-0.03,0.946,0.416,0.543,0.991L542.737,910.009z M196.32,1137.51
	l-2.416,3.449c-0.403,0.575-0.532,1.583-0.286,2.241l1.471,3.945c0.245,0.658-0.103,1.028-0.774,0.822l-4.027-1.232
	c-0.671-0.205-1.67-0.016-2.22,0.42l-3.298,2.619c-0.55,0.436-1.009,0.219-1.022-0.483l-0.072-4.21
	c-0.012-0.702-0.5-1.594-1.085-1.981l-3.51-2.327c-0.585-0.388-0.521-0.892,0.143-1.121l3.982-1.37
	c0.664-0.228,1.361-0.969,1.549-1.645l1.129-4.057c0.188-0.676,0.688-0.771,1.11-0.21l2.533,3.364
	c0.422,0.56,1.342,0.995,2.043,0.965l4.207-0.18C196.479,1136.49,196.723,1136.936,196.32,1137.51z M90.736,1014.983l-2.416,3.449
	c-0.403,0.575-0.532,1.584-0.286,2.241l1.471,3.945c0.245,0.658-0.103,1.028-0.774,0.823l-4.027-1.232
	c-0.671-0.206-1.67-0.017-2.22,0.42l-3.298,2.619c-0.55,0.437-1.009,0.219-1.022-0.483l-0.072-4.21
	c-0.012-0.702-0.5-1.594-1.085-1.982l-3.51-2.327c-0.585-0.388-0.521-0.892,0.143-1.121l3.982-1.37
	c0.664-0.228,1.361-0.969,1.549-1.645l1.129-4.057c0.188-0.676,0.688-0.771,1.11-0.21l2.533,3.364
	c0.422,0.561,1.342,0.995,2.043,0.965l4.207-0.18C90.895,1013.962,91.139,1014.408,90.736,1014.983z M302.494,690.306l-2.416,3.449
	c-0.403,0.575-0.532,1.584-0.286,2.241l1.472,3.945c0.245,0.658-0.103,1.028-0.775,0.822l-4.026-1.232
	c-0.671-0.205-1.67-0.016-2.22,0.42l-3.298,2.618c-0.55,0.437-1.009,0.22-1.022-0.482l-0.072-4.21
	c-0.012-0.702-0.501-1.594-1.086-1.982l-3.509-2.327c-0.585-0.388-0.521-0.892,0.143-1.121l3.982-1.37
	c0.664-0.228,1.361-0.969,1.549-1.645l1.129-4.057c0.188-0.676,0.688-0.771,1.11-0.21l2.533,3.364
	c0.422,0.56,1.342,0.995,2.043,0.965l4.207-0.18C302.652,689.285,302.897,689.731,302.494,690.306z M307.561,590.612l-3.298,2.618
	c-0.55,0.437-1.009,0.219-1.022-0.483l-0.072-4.21c-0.012-0.702-0.5-1.594-1.086-1.982l-3.509-2.327
	c-0.585-0.388-0.521-0.892,0.143-1.121l3.982-1.37c0.664-0.228,1.361-0.969,1.549-1.645l1.129-4.057
	c0.188-0.676,0.688-0.771,1.11-0.21l2.533,3.363c0.422,0.561,1.342,0.995,2.043,0.965l4.207-0.18
	c0.702-0.03,0.946,0.416,0.543,0.991l-2.416,3.449c-0.403,0.575-0.532,1.583-0.286,2.241l1.471,3.945
	c0.245,0.658-0.103,1.028-0.774,0.823l-4.027-1.232C309.11,589.987,308.111,590.176,307.561,590.612z M898.105,823.104
	l-3.551,10.362l2.601,10.64l-10.362-3.551l-10.64,2.601l3.55-10.362l-2.6-10.64l10.361,3.55L898.105,823.104z M866.365,721.788
	l-1.743,5.087l1.277,5.223l-5.087-1.743l-5.223,1.277l1.743-5.087l-1.277-5.223l5.087,1.743L866.365,721.788z M614.151,804.904
	l1.743-5.087l-1.277-5.223l5.087,1.743l5.223-1.277l-1.743,5.087l1.277,5.223l-5.087-1.743L614.151,804.904z"/>
</svg>
